%TF.GenerationSoftware,KiCad,Pcbnew,6.0.4-6f826c9f35~116~ubuntu20.04.1*%
%TF.CreationDate,2022-04-06T08:17:54+02:00*%
%TF.ProjectId,TestProject,54657374-5072-46f6-9a65-63742e6b6963,rev?*%
%TF.SameCoordinates,Original*%
%TF.FileFunction,Legend,Top*%
%TF.FilePolarity,Positive*%
%FSLAX46Y46*%
G04 Gerber Fmt 4.6, Leading zero omitted, Abs format (unit mm)*
G04 Created by KiCad (PCBNEW 6.0.4-6f826c9f35~116~ubuntu20.04.1) date 2022-04-06 08:17:54*
%MOMM*%
%LPD*%
G01*
G04 APERTURE LIST*
%ADD10C,0.250000*%
%ADD11C,0.150000*%
%ADD12C,0.300000*%
%ADD13C,0.120000*%
G04 APERTURE END LIST*
D10*
X50492488Y-35259363D02*
X50444869Y-35402220D01*
X50444869Y-35640315D01*
X50492488Y-35735554D01*
X50540107Y-35783173D01*
X50635345Y-35830792D01*
X50730583Y-35830792D01*
X50825821Y-35783173D01*
X50873440Y-35735554D01*
X50921059Y-35640315D01*
X50968678Y-35449839D01*
X51016297Y-35354601D01*
X51063916Y-35306982D01*
X51159154Y-35259363D01*
X51254392Y-35259363D01*
X51349630Y-35306982D01*
X51397250Y-35354601D01*
X51444869Y-35449839D01*
X51444869Y-35687934D01*
X51397250Y-35830792D01*
X50444869Y-36259363D02*
X51111535Y-36259363D01*
X51444869Y-36259363D02*
X51397250Y-36211744D01*
X51349630Y-36259363D01*
X51397250Y-36306982D01*
X51444869Y-36259363D01*
X51349630Y-36259363D01*
X51111535Y-37164125D02*
X50302011Y-37164125D01*
X50206773Y-37116506D01*
X50159154Y-37068887D01*
X50111535Y-36973649D01*
X50111535Y-36830792D01*
X50159154Y-36735554D01*
X50492488Y-37164125D02*
X50444869Y-37068887D01*
X50444869Y-36878411D01*
X50492488Y-36783173D01*
X50540107Y-36735554D01*
X50635345Y-36687934D01*
X50921059Y-36687934D01*
X51016297Y-36735554D01*
X51063916Y-36783173D01*
X51111535Y-36878411D01*
X51111535Y-37068887D01*
X51063916Y-37164125D01*
X53847955Y-35473649D02*
X53895574Y-35378411D01*
X53895574Y-35235554D01*
X53847955Y-35092696D01*
X53752716Y-34997458D01*
X53657478Y-34949839D01*
X53467002Y-34902220D01*
X53324145Y-34902220D01*
X53133669Y-34949839D01*
X53038431Y-34997458D01*
X52943193Y-35092696D01*
X52895574Y-35235554D01*
X52895574Y-35330792D01*
X52943193Y-35473649D01*
X52990812Y-35521268D01*
X53324145Y-35521268D01*
X53324145Y-35330792D01*
X52895574Y-35949839D02*
X53895574Y-35949839D01*
X52895574Y-36521268D01*
X53895574Y-36521268D01*
X52895574Y-36997458D02*
X53895574Y-36997458D01*
X53895574Y-37235554D01*
X53847955Y-37378411D01*
X53752716Y-37473649D01*
X53657478Y-37521268D01*
X53467002Y-37568887D01*
X53324145Y-37568887D01*
X53133669Y-37521268D01*
X53038431Y-37473649D01*
X52943193Y-37378411D01*
X52895574Y-37235554D01*
X52895574Y-36997458D01*
X48605163Y-35153394D02*
X47605163Y-35486727D01*
X48605163Y-35820061D01*
X47605163Y-36153394D02*
X48271829Y-36153394D01*
X48605163Y-36153394D02*
X48557544Y-36105775D01*
X48509924Y-36153394D01*
X48557544Y-36201013D01*
X48605163Y-36153394D01*
X48509924Y-36153394D01*
X48271829Y-36629584D02*
X47605163Y-36629584D01*
X48176591Y-36629584D02*
X48224210Y-36677204D01*
X48271829Y-36772442D01*
X48271829Y-36915299D01*
X48224210Y-37010537D01*
X48128972Y-37058156D01*
X47605163Y-37058156D01*
X41326997Y-35197201D02*
X41326997Y-35387677D01*
X41279378Y-35482915D01*
X41184139Y-35578154D01*
X40993663Y-35625773D01*
X40660330Y-35625773D01*
X40469854Y-35578154D01*
X40374616Y-35482915D01*
X40326997Y-35387677D01*
X40326997Y-35197201D01*
X40374616Y-35101963D01*
X40469854Y-35006725D01*
X40660330Y-34959106D01*
X40993663Y-34959106D01*
X41184139Y-35006725D01*
X41279378Y-35101963D01*
X41326997Y-35197201D01*
X40993663Y-36482915D02*
X40326997Y-36482915D01*
X40993663Y-36054344D02*
X40469854Y-36054344D01*
X40374616Y-36101963D01*
X40326997Y-36197201D01*
X40326997Y-36340058D01*
X40374616Y-36435296D01*
X40422235Y-36482915D01*
X40993663Y-36816249D02*
X40993663Y-37197201D01*
X41326997Y-36959106D02*
X40469854Y-36959106D01*
X40374616Y-37006725D01*
X40326997Y-37101963D01*
X40326997Y-37197201D01*
X37661125Y-36026093D02*
X38661125Y-36026093D01*
X38327791Y-36502283D02*
X37661125Y-36502283D01*
X38232553Y-36502283D02*
X38280172Y-36549902D01*
X38327791Y-36645140D01*
X38327791Y-36787997D01*
X38280172Y-36883235D01*
X38184934Y-36930854D01*
X37661125Y-36930854D01*
D11*
X35512380Y-16795809D02*
X35607619Y-16795809D01*
X35702857Y-16872000D01*
X35750476Y-16948190D01*
X35798095Y-17100571D01*
X35845714Y-17405333D01*
X35845714Y-17786285D01*
X35798095Y-18091047D01*
X35750476Y-18243428D01*
X35702857Y-18319619D01*
X35607619Y-18395809D01*
X35512380Y-18395809D01*
X35417142Y-18319619D01*
X35369523Y-18243428D01*
X35321904Y-18091047D01*
X35274285Y-17786285D01*
X35274285Y-17405333D01*
X35321904Y-17100571D01*
X35369523Y-16948190D01*
X35417142Y-16872000D01*
X35512380Y-16795809D01*
X35845714Y-20971809D02*
X35274285Y-20971809D01*
X35560000Y-20971809D02*
X35560000Y-19371809D01*
X35464761Y-19600380D01*
X35369523Y-19752761D01*
X35274285Y-19828952D01*
X35274285Y-22100190D02*
X35321904Y-22024000D01*
X35417142Y-21947809D01*
X35655238Y-21947809D01*
X35750476Y-22024000D01*
X35798095Y-22100190D01*
X35845714Y-22252571D01*
X35845714Y-22404952D01*
X35798095Y-22633523D01*
X35226666Y-23547809D01*
X35845714Y-23547809D01*
X35226666Y-24523809D02*
X35845714Y-24523809D01*
X35512380Y-25133333D01*
X35655238Y-25133333D01*
X35750476Y-25209523D01*
X35798095Y-25285714D01*
X35845714Y-25438095D01*
X35845714Y-25819047D01*
X35798095Y-25971428D01*
X35750476Y-26047619D01*
X35655238Y-26123809D01*
X35369523Y-26123809D01*
X35274285Y-26047619D01*
X35226666Y-25971428D01*
X35750476Y-27633142D02*
X35750476Y-28699809D01*
X35512380Y-27023619D02*
X35274285Y-28166476D01*
X35893333Y-28166476D01*
X35798095Y-29675809D02*
X35321904Y-29675809D01*
X35274285Y-30437714D01*
X35321904Y-30361523D01*
X35417142Y-30285333D01*
X35655238Y-30285333D01*
X35750476Y-30361523D01*
X35798095Y-30437714D01*
X35845714Y-30590095D01*
X35845714Y-30971047D01*
X35798095Y-31123428D01*
X35750476Y-31199619D01*
X35655238Y-31275809D01*
X35417142Y-31275809D01*
X35321904Y-31199619D01*
X35274285Y-31123428D01*
X35750476Y-32251809D02*
X35560000Y-32251809D01*
X35464761Y-32328000D01*
X35417142Y-32404190D01*
X35321904Y-32632761D01*
X35274285Y-32937523D01*
X35274285Y-33547047D01*
X35321904Y-33699428D01*
X35369523Y-33775619D01*
X35464761Y-33851809D01*
X35655238Y-33851809D01*
X35750476Y-33775619D01*
X35798095Y-33699428D01*
X35845714Y-33547047D01*
X35845714Y-33166095D01*
X35798095Y-33013714D01*
X35750476Y-32937523D01*
X35655238Y-32861333D01*
X35464761Y-32861333D01*
X35369523Y-32937523D01*
X35321904Y-33013714D01*
X35274285Y-33166095D01*
X56072738Y-16795809D02*
X56406071Y-18395809D01*
X56739404Y-16795809D01*
X57644166Y-18243428D02*
X57596547Y-18319619D01*
X57453690Y-18395809D01*
X57358452Y-18395809D01*
X57215595Y-18319619D01*
X57120357Y-18167238D01*
X57072738Y-18014857D01*
X57025119Y-17710095D01*
X57025119Y-17481523D01*
X57072738Y-17176761D01*
X57120357Y-17024380D01*
X57215595Y-16872000D01*
X57358452Y-16795809D01*
X57453690Y-16795809D01*
X57596547Y-16872000D01*
X57644166Y-16948190D01*
X58644166Y-18243428D02*
X58596547Y-18319619D01*
X58453690Y-18395809D01*
X58358452Y-18395809D01*
X58215595Y-18319619D01*
X58120357Y-18167238D01*
X58072738Y-18014857D01*
X58025119Y-17710095D01*
X58025119Y-17481523D01*
X58072738Y-17176761D01*
X58120357Y-17024380D01*
X58215595Y-16872000D01*
X58358452Y-16795809D01*
X58453690Y-16795809D01*
X58596547Y-16872000D01*
X58644166Y-16948190D01*
X56739404Y-19448000D02*
X56644166Y-19371809D01*
X56501309Y-19371809D01*
X56358452Y-19448000D01*
X56263214Y-19600380D01*
X56215595Y-19752761D01*
X56167976Y-20057523D01*
X56167976Y-20286095D01*
X56215595Y-20590857D01*
X56263214Y-20743238D01*
X56358452Y-20895619D01*
X56501309Y-20971809D01*
X56596547Y-20971809D01*
X56739404Y-20895619D01*
X56787023Y-20819428D01*
X56787023Y-20286095D01*
X56596547Y-20286095D01*
X57215595Y-20971809D02*
X57215595Y-19371809D01*
X57787023Y-20971809D01*
X57787023Y-19371809D01*
X58263214Y-20971809D02*
X58263214Y-19371809D01*
X58501309Y-19371809D01*
X58644166Y-19448000D01*
X58739404Y-19600380D01*
X58787023Y-19752761D01*
X58834642Y-20057523D01*
X58834642Y-20286095D01*
X58787023Y-20590857D01*
X58739404Y-20743238D01*
X58644166Y-20895619D01*
X58501309Y-20971809D01*
X58263214Y-20971809D01*
X56120357Y-21947809D02*
X56739404Y-21947809D01*
X56406071Y-22557333D01*
X56548928Y-22557333D01*
X56644166Y-22633523D01*
X56691785Y-22709714D01*
X56739404Y-22862095D01*
X56739404Y-23243047D01*
X56691785Y-23395428D01*
X56644166Y-23471619D01*
X56548928Y-23547809D01*
X56263214Y-23547809D01*
X56167976Y-23471619D01*
X56120357Y-23395428D01*
X57025119Y-21947809D02*
X57358452Y-23547809D01*
X57691785Y-21947809D01*
X57929880Y-21947809D02*
X58548928Y-21947809D01*
X58215595Y-22557333D01*
X58358452Y-22557333D01*
X58453690Y-22633523D01*
X58501309Y-22709714D01*
X58548928Y-22862095D01*
X58548928Y-23243047D01*
X58501309Y-23395428D01*
X58453690Y-23471619D01*
X58358452Y-23547809D01*
X58072738Y-23547809D01*
X57977500Y-23471619D01*
X57929880Y-23395428D01*
X56739404Y-26123809D02*
X56167976Y-26123809D01*
X56453690Y-26123809D02*
X56453690Y-24523809D01*
X56358452Y-24752380D01*
X56263214Y-24904761D01*
X56167976Y-24980952D01*
X57358452Y-24523809D02*
X57453690Y-24523809D01*
X57548928Y-24600000D01*
X57596547Y-24676190D01*
X57644166Y-24828571D01*
X57691785Y-25133333D01*
X57691785Y-25514285D01*
X57644166Y-25819047D01*
X57596547Y-25971428D01*
X57548928Y-26047619D01*
X57453690Y-26123809D01*
X57358452Y-26123809D01*
X57263214Y-26047619D01*
X57215595Y-25971428D01*
X57167976Y-25819047D01*
X57120357Y-25514285D01*
X57120357Y-25133333D01*
X57167976Y-24828571D01*
X57215595Y-24676190D01*
X57263214Y-24600000D01*
X57358452Y-24523809D01*
X56263214Y-28699809D02*
X56453690Y-28699809D01*
X56548928Y-28623619D01*
X56596547Y-28547428D01*
X56691785Y-28318857D01*
X56739404Y-28014095D01*
X56739404Y-27404571D01*
X56691785Y-27252190D01*
X56644166Y-27176000D01*
X56548928Y-27099809D01*
X56358452Y-27099809D01*
X56263214Y-27176000D01*
X56215595Y-27252190D01*
X56167976Y-27404571D01*
X56167976Y-27785523D01*
X56215595Y-27937904D01*
X56263214Y-28014095D01*
X56358452Y-28090285D01*
X56548928Y-28090285D01*
X56644166Y-28014095D01*
X56691785Y-27937904D01*
X56739404Y-27785523D01*
X56358452Y-30361523D02*
X56263214Y-30285333D01*
X56215595Y-30209142D01*
X56167976Y-30056761D01*
X56167976Y-29980571D01*
X56215595Y-29828190D01*
X56263214Y-29752000D01*
X56358452Y-29675809D01*
X56548928Y-29675809D01*
X56644166Y-29752000D01*
X56691785Y-29828190D01*
X56739404Y-29980571D01*
X56739404Y-30056761D01*
X56691785Y-30209142D01*
X56644166Y-30285333D01*
X56548928Y-30361523D01*
X56358452Y-30361523D01*
X56263214Y-30437714D01*
X56215595Y-30513904D01*
X56167976Y-30666285D01*
X56167976Y-30971047D01*
X56215595Y-31123428D01*
X56263214Y-31199619D01*
X56358452Y-31275809D01*
X56548928Y-31275809D01*
X56644166Y-31199619D01*
X56691785Y-31123428D01*
X56739404Y-30971047D01*
X56739404Y-30666285D01*
X56691785Y-30513904D01*
X56644166Y-30437714D01*
X56548928Y-30361523D01*
X56120357Y-32251809D02*
X56787023Y-32251809D01*
X56358452Y-33851809D01*
X45910476Y-16522619D02*
X46100952Y-16379761D01*
X46291428Y-16522619D01*
X44458095Y-18037380D02*
X44458095Y-18846904D01*
X44505714Y-18942142D01*
X44553333Y-18989761D01*
X44648571Y-19037380D01*
X44839047Y-19037380D01*
X44934285Y-18989761D01*
X44981904Y-18942142D01*
X45029523Y-18846904D01*
X45029523Y-18037380D01*
X45458095Y-18989761D02*
X45600952Y-19037380D01*
X45839047Y-19037380D01*
X45934285Y-18989761D01*
X45981904Y-18942142D01*
X46029523Y-18846904D01*
X46029523Y-18751666D01*
X45981904Y-18656428D01*
X45934285Y-18608809D01*
X45839047Y-18561190D01*
X45648571Y-18513571D01*
X45553333Y-18465952D01*
X45505714Y-18418333D01*
X45458095Y-18323095D01*
X45458095Y-18227857D01*
X45505714Y-18132619D01*
X45553333Y-18085000D01*
X45648571Y-18037380D01*
X45886666Y-18037380D01*
X46029523Y-18085000D01*
X46791428Y-18513571D02*
X46934285Y-18561190D01*
X46981904Y-18608809D01*
X47029523Y-18704047D01*
X47029523Y-18846904D01*
X46981904Y-18942142D01*
X46934285Y-18989761D01*
X46839047Y-19037380D01*
X46458095Y-19037380D01*
X46458095Y-18037380D01*
X46791428Y-18037380D01*
X46886666Y-18085000D01*
X46934285Y-18132619D01*
X46981904Y-18227857D01*
X46981904Y-18323095D01*
X46934285Y-18418333D01*
X46886666Y-18465952D01*
X46791428Y-18513571D01*
X46458095Y-18513571D01*
D10*
X14504846Y-14720597D02*
X14838179Y-15720597D01*
X15171513Y-14720597D01*
X15504846Y-15720597D02*
X15504846Y-15053931D01*
X15504846Y-14720597D02*
X15457227Y-14768217D01*
X15504846Y-14815836D01*
X15552465Y-14768217D01*
X15504846Y-14720597D01*
X15504846Y-14815836D01*
X15981036Y-15053931D02*
X15981036Y-15720597D01*
X15981036Y-15149169D02*
X16028656Y-15101550D01*
X16123894Y-15053931D01*
X16266751Y-15053931D01*
X16361989Y-15101550D01*
X16409608Y-15196788D01*
X16409608Y-15720597D01*
X14742941Y-19947573D02*
X15076275Y-20947573D01*
X15409608Y-19947573D01*
X15885798Y-20947573D02*
X15790560Y-20899954D01*
X15742941Y-20852335D01*
X15695322Y-20757097D01*
X15695322Y-20471383D01*
X15742941Y-20376145D01*
X15790560Y-20328526D01*
X15885798Y-20280907D01*
X16028656Y-20280907D01*
X16123894Y-20328526D01*
X16171513Y-20376145D01*
X16219132Y-20471383D01*
X16219132Y-20757097D01*
X16171513Y-20852335D01*
X16123894Y-20899954D01*
X16028656Y-20947573D01*
X15885798Y-20947573D01*
X14766751Y-17430103D02*
X14671513Y-17382483D01*
X14528656Y-17382483D01*
X14385798Y-17430103D01*
X14290560Y-17525341D01*
X14242941Y-17620579D01*
X14195322Y-17811055D01*
X14195322Y-17953912D01*
X14242941Y-18144388D01*
X14290560Y-18239626D01*
X14385798Y-18334864D01*
X14528656Y-18382483D01*
X14623894Y-18382483D01*
X14766751Y-18334864D01*
X14814370Y-18287245D01*
X14814370Y-17953912D01*
X14623894Y-17953912D01*
X15242941Y-18382483D02*
X15242941Y-17382483D01*
X15814370Y-18382483D01*
X15814370Y-17382483D01*
X16290560Y-18382483D02*
X16290560Y-17382483D01*
X16528656Y-17382483D01*
X16671513Y-17430103D01*
X16766751Y-17525341D01*
X16814370Y-17620579D01*
X16861989Y-17811055D01*
X16861989Y-17953912D01*
X16814370Y-18144388D01*
X16766751Y-18239626D01*
X16671513Y-18334864D01*
X16528656Y-18382483D01*
X16290560Y-18382483D01*
D12*
X15467142Y-40532857D02*
X15967142Y-40532857D01*
X16181428Y-41318571D02*
X15467142Y-41318571D01*
X15467142Y-39818571D01*
X16181428Y-39818571D01*
X17324285Y-40532857D02*
X17538571Y-40604285D01*
X17610000Y-40675714D01*
X17681428Y-40818571D01*
X17681428Y-41032857D01*
X17610000Y-41175714D01*
X17538571Y-41247142D01*
X17395714Y-41318571D01*
X16824285Y-41318571D01*
X16824285Y-39818571D01*
X17324285Y-39818571D01*
X17467142Y-39890000D01*
X17538571Y-39961428D01*
X17610000Y-40104285D01*
X17610000Y-40247142D01*
X17538571Y-40390000D01*
X17467142Y-40461428D01*
X17324285Y-40532857D01*
X16824285Y-40532857D01*
X18538571Y-41318571D02*
X18395714Y-41247142D01*
X18324285Y-41175714D01*
X18252857Y-41032857D01*
X18252857Y-40604285D01*
X18324285Y-40461428D01*
X18395714Y-40390000D01*
X18538571Y-40318571D01*
X18752857Y-40318571D01*
X18895714Y-40390000D01*
X18967142Y-40461428D01*
X19038571Y-40604285D01*
X19038571Y-41032857D01*
X18967142Y-41175714D01*
X18895714Y-41247142D01*
X18752857Y-41318571D01*
X18538571Y-41318571D01*
X20324285Y-41318571D02*
X20324285Y-40532857D01*
X20252857Y-40390000D01*
X20110000Y-40318571D01*
X19824285Y-40318571D01*
X19681428Y-40390000D01*
X20324285Y-41247142D02*
X20181428Y-41318571D01*
X19824285Y-41318571D01*
X19681428Y-41247142D01*
X19610000Y-41104285D01*
X19610000Y-40961428D01*
X19681428Y-40818571D01*
X19824285Y-40747142D01*
X20181428Y-40747142D01*
X20324285Y-40675714D01*
X21038571Y-41318571D02*
X21038571Y-40318571D01*
X21038571Y-40604285D02*
X21110000Y-40461428D01*
X21181428Y-40390000D01*
X21324285Y-40318571D01*
X21467142Y-40318571D01*
X22610000Y-41318571D02*
X22610000Y-39818571D01*
X22610000Y-41247142D02*
X22467142Y-41318571D01*
X22181428Y-41318571D01*
X22038571Y-41247142D01*
X21967142Y-41175714D01*
X21895714Y-41032857D01*
X21895714Y-40604285D01*
X21967142Y-40461428D01*
X22038571Y-40390000D01*
X22181428Y-40318571D01*
X22467142Y-40318571D01*
X22610000Y-40390000D01*
X24467142Y-41318571D02*
X24467142Y-39818571D01*
X24967142Y-40890000D01*
X25467142Y-39818571D01*
X25467142Y-41318571D01*
X26181428Y-41318571D02*
X26181428Y-39818571D01*
X26324285Y-40747142D02*
X26752857Y-41318571D01*
X26752857Y-40318571D02*
X26181428Y-40890000D01*
X28181428Y-41318571D02*
X27324285Y-41318571D01*
X27752857Y-41318571D02*
X27752857Y-39818571D01*
X27610000Y-40032857D01*
X27467142Y-40175714D01*
X27324285Y-40247142D01*
X28824285Y-41175714D02*
X28895714Y-41247142D01*
X28824285Y-41318571D01*
X28752857Y-41247142D01*
X28824285Y-41175714D01*
X28824285Y-41318571D01*
X29824285Y-39818571D02*
X29967142Y-39818571D01*
X30110000Y-39890000D01*
X30181428Y-39961428D01*
X30252857Y-40104285D01*
X30324285Y-40390000D01*
X30324285Y-40747142D01*
X30252857Y-41032857D01*
X30181428Y-41175714D01*
X30110000Y-41247142D01*
X29967142Y-41318571D01*
X29824285Y-41318571D01*
X29681428Y-41247142D01*
X29610000Y-41175714D01*
X29538571Y-41032857D01*
X29467142Y-40747142D01*
X29467142Y-40390000D01*
X29538571Y-40104285D01*
X29610000Y-39961428D01*
X29681428Y-39890000D01*
X29824285Y-39818571D01*
D11*
%TO.C,J4_LED1*%
X47036317Y-41400906D02*
X47036317Y-42115192D01*
X46988698Y-42258049D01*
X46893460Y-42353287D01*
X46750603Y-42400906D01*
X46655365Y-42400906D01*
X47941079Y-41734240D02*
X47941079Y-42400906D01*
X47702984Y-41353287D02*
X47464889Y-42067573D01*
X48083937Y-42067573D01*
X48226794Y-42496145D02*
X48988698Y-42496145D01*
X49702984Y-42400906D02*
X49226794Y-42400906D01*
X49226794Y-41400906D01*
X50036317Y-41877097D02*
X50369651Y-41877097D01*
X50512508Y-42400906D02*
X50036317Y-42400906D01*
X50036317Y-41400906D01*
X50512508Y-41400906D01*
X50941079Y-42400906D02*
X50941079Y-41400906D01*
X51179175Y-41400906D01*
X51322032Y-41448526D01*
X51417270Y-41543764D01*
X51464889Y-41639002D01*
X51512508Y-41829478D01*
X51512508Y-41972335D01*
X51464889Y-42162811D01*
X51417270Y-42258049D01*
X51322032Y-42353287D01*
X51179175Y-42400906D01*
X50941079Y-42400906D01*
X52464889Y-42400906D02*
X51893460Y-42400906D01*
X52179175Y-42400906D02*
X52179175Y-41400906D01*
X52083937Y-41543764D01*
X51988698Y-41639002D01*
X51893460Y-41686621D01*
%TO.C,J1_XT60*%
X15256190Y-27101155D02*
X15256190Y-27815441D01*
X15208571Y-27958298D01*
X15113333Y-28053536D01*
X14970476Y-28101155D01*
X14875238Y-28101155D01*
X16256190Y-28101155D02*
X15684761Y-28101155D01*
X15970476Y-28101155D02*
X15970476Y-27101155D01*
X15875238Y-27244013D01*
X15780000Y-27339251D01*
X15684761Y-27386870D01*
X16446666Y-28196394D02*
X17208571Y-28196394D01*
X17351428Y-27101155D02*
X18018095Y-28101155D01*
X18018095Y-27101155D02*
X17351428Y-28101155D01*
X18256190Y-27101155D02*
X18827619Y-27101155D01*
X18541904Y-28101155D02*
X18541904Y-27101155D01*
X19589523Y-27101155D02*
X19399047Y-27101155D01*
X19303809Y-27148775D01*
X19256190Y-27196394D01*
X19160952Y-27339251D01*
X19113333Y-27529727D01*
X19113333Y-27910679D01*
X19160952Y-28005917D01*
X19208571Y-28053536D01*
X19303809Y-28101155D01*
X19494285Y-28101155D01*
X19589523Y-28053536D01*
X19637142Y-28005917D01*
X19684761Y-27910679D01*
X19684761Y-27672584D01*
X19637142Y-27577346D01*
X19589523Y-27529727D01*
X19494285Y-27482108D01*
X19303809Y-27482108D01*
X19208571Y-27529727D01*
X19160952Y-27577346D01*
X19113333Y-27672584D01*
X20303809Y-27101155D02*
X20399047Y-27101155D01*
X20494285Y-27148775D01*
X20541904Y-27196394D01*
X20589523Y-27291632D01*
X20637142Y-27482108D01*
X20637142Y-27720203D01*
X20589523Y-27910679D01*
X20541904Y-28005917D01*
X20494285Y-28053536D01*
X20399047Y-28101155D01*
X20303809Y-28101155D01*
X20208571Y-28053536D01*
X20160952Y-28005917D01*
X20113333Y-27910679D01*
X20065714Y-27720203D01*
X20065714Y-27482108D01*
X20113333Y-27291632D01*
X20160952Y-27196394D01*
X20208571Y-27148775D01*
X20303809Y-27101155D01*
%TO.C,J5_Button1*%
X35927752Y-41074380D02*
X35927752Y-41788666D01*
X35880133Y-41931523D01*
X35784895Y-42026761D01*
X35642038Y-42074380D01*
X35546800Y-42074380D01*
X36880133Y-41074380D02*
X36403942Y-41074380D01*
X36356323Y-41550571D01*
X36403942Y-41502952D01*
X36499180Y-41455333D01*
X36737276Y-41455333D01*
X36832514Y-41502952D01*
X36880133Y-41550571D01*
X36927752Y-41645809D01*
X36927752Y-41883904D01*
X36880133Y-41979142D01*
X36832514Y-42026761D01*
X36737276Y-42074380D01*
X36499180Y-42074380D01*
X36403942Y-42026761D01*
X36356323Y-41979142D01*
X37118228Y-42169619D02*
X37880133Y-42169619D01*
X38451561Y-41550571D02*
X38594419Y-41598190D01*
X38642038Y-41645809D01*
X38689657Y-41741047D01*
X38689657Y-41883904D01*
X38642038Y-41979142D01*
X38594419Y-42026761D01*
X38499180Y-42074380D01*
X38118228Y-42074380D01*
X38118228Y-41074380D01*
X38451561Y-41074380D01*
X38546800Y-41122000D01*
X38594419Y-41169619D01*
X38642038Y-41264857D01*
X38642038Y-41360095D01*
X38594419Y-41455333D01*
X38546800Y-41502952D01*
X38451561Y-41550571D01*
X38118228Y-41550571D01*
X39546800Y-41407714D02*
X39546800Y-42074380D01*
X39118228Y-41407714D02*
X39118228Y-41931523D01*
X39165847Y-42026761D01*
X39261085Y-42074380D01*
X39403942Y-42074380D01*
X39499180Y-42026761D01*
X39546800Y-41979142D01*
X39880133Y-41407714D02*
X40261085Y-41407714D01*
X40022990Y-41074380D02*
X40022990Y-41931523D01*
X40070609Y-42026761D01*
X40165847Y-42074380D01*
X40261085Y-42074380D01*
X40451561Y-41407714D02*
X40832514Y-41407714D01*
X40594419Y-41074380D02*
X40594419Y-41931523D01*
X40642038Y-42026761D01*
X40737276Y-42074380D01*
X40832514Y-42074380D01*
X41308704Y-42074380D02*
X41213466Y-42026761D01*
X41165847Y-41979142D01*
X41118228Y-41883904D01*
X41118228Y-41598190D01*
X41165847Y-41502952D01*
X41213466Y-41455333D01*
X41308704Y-41407714D01*
X41451561Y-41407714D01*
X41546800Y-41455333D01*
X41594419Y-41502952D01*
X41642038Y-41598190D01*
X41642038Y-41883904D01*
X41594419Y-41979142D01*
X41546800Y-42026761D01*
X41451561Y-42074380D01*
X41308704Y-42074380D01*
X42070609Y-41407714D02*
X42070609Y-42074380D01*
X42070609Y-41502952D02*
X42118228Y-41455333D01*
X42213466Y-41407714D01*
X42356323Y-41407714D01*
X42451561Y-41455333D01*
X42499180Y-41550571D01*
X42499180Y-42074380D01*
X43499180Y-42074380D02*
X42927752Y-42074380D01*
X43213466Y-42074380D02*
X43213466Y-41074380D01*
X43118228Y-41217238D01*
X43022990Y-41312476D01*
X42927752Y-41360095D01*
%TO.C,J2_Buck1*%
X14803809Y-22561061D02*
X14803809Y-23275347D01*
X14756190Y-23418204D01*
X14660952Y-23513442D01*
X14518095Y-23561061D01*
X14422857Y-23561061D01*
X15232380Y-22656300D02*
X15280000Y-22608681D01*
X15375238Y-22561061D01*
X15613333Y-22561061D01*
X15708571Y-22608681D01*
X15756190Y-22656300D01*
X15803809Y-22751538D01*
X15803809Y-22846776D01*
X15756190Y-22989633D01*
X15184761Y-23561061D01*
X15803809Y-23561061D01*
X15994285Y-23656300D02*
X16756190Y-23656300D01*
X17327619Y-23037252D02*
X17470476Y-23084871D01*
X17518095Y-23132490D01*
X17565714Y-23227728D01*
X17565714Y-23370585D01*
X17518095Y-23465823D01*
X17470476Y-23513442D01*
X17375238Y-23561061D01*
X16994285Y-23561061D01*
X16994285Y-22561061D01*
X17327619Y-22561061D01*
X17422857Y-22608681D01*
X17470476Y-22656300D01*
X17518095Y-22751538D01*
X17518095Y-22846776D01*
X17470476Y-22942014D01*
X17422857Y-22989633D01*
X17327619Y-23037252D01*
X16994285Y-23037252D01*
X18422857Y-22894395D02*
X18422857Y-23561061D01*
X17994285Y-22894395D02*
X17994285Y-23418204D01*
X18041904Y-23513442D01*
X18137142Y-23561061D01*
X18280000Y-23561061D01*
X18375238Y-23513442D01*
X18422857Y-23465823D01*
X19327619Y-23513442D02*
X19232380Y-23561061D01*
X19041904Y-23561061D01*
X18946666Y-23513442D01*
X18899047Y-23465823D01*
X18851428Y-23370585D01*
X18851428Y-23084871D01*
X18899047Y-22989633D01*
X18946666Y-22942014D01*
X19041904Y-22894395D01*
X19232380Y-22894395D01*
X19327619Y-22942014D01*
X19756190Y-23561061D02*
X19756190Y-22561061D01*
X19851428Y-23180109D02*
X20137142Y-23561061D01*
X20137142Y-22894395D02*
X19756190Y-23275347D01*
X21089523Y-23561061D02*
X20518095Y-23561061D01*
X20803809Y-23561061D02*
X20803809Y-22561061D01*
X20708571Y-22703919D01*
X20613333Y-22799157D01*
X20518095Y-22846776D01*
D13*
%TO.C,J4_LED1*%
X54670000Y-40495700D02*
X54670000Y-37835700D01*
X49530000Y-40495700D02*
X54670000Y-40495700D01*
X48260000Y-40495700D02*
X46930000Y-40495700D01*
X49530000Y-37835700D02*
X54670000Y-37835700D01*
X46930000Y-40495700D02*
X46930000Y-39165700D01*
X49530000Y-40495700D02*
X49530000Y-37835700D01*
%TO.C,J3_MCU_Left1*%
X38075000Y-16430000D02*
X39405000Y-16430000D01*
X36745000Y-19030000D02*
X39405000Y-19030000D01*
X39405000Y-19030000D02*
X39405000Y-34330000D01*
X36745000Y-34330000D02*
X39405000Y-34330000D01*
X36745000Y-19030000D02*
X36745000Y-34330000D01*
X39405000Y-16430000D02*
X39405000Y-17760000D01*
%TO.C,J1_XT60*%
X17860000Y-28870000D02*
X15010000Y-31420000D01*
X30710000Y-37170000D02*
X30710000Y-28870000D01*
X15010000Y-34570000D02*
X17860000Y-37170000D01*
X30710000Y-28870000D02*
X17860000Y-28870000D01*
X17860000Y-37170000D02*
X30710000Y-37170000D01*
X15010000Y-31420000D02*
X15010000Y-34570000D01*
%TO.C,J3_MCU_Right1*%
X51985000Y-34310000D02*
X51985000Y-32980000D01*
X54645000Y-31710000D02*
X51985000Y-31710000D01*
X53315000Y-34310000D02*
X51985000Y-34310000D01*
X54645000Y-31710000D02*
X54645000Y-16410000D01*
X51985000Y-31710000D02*
X51985000Y-16410000D01*
X54645000Y-16410000D02*
X51985000Y-16410000D01*
%TO.C,J5_Button1*%
X38276800Y-40412000D02*
X36946800Y-40412000D01*
X39546800Y-40412000D02*
X39546800Y-37752000D01*
X39546800Y-37752000D02*
X42146800Y-37752000D01*
X42146800Y-40412000D02*
X42146800Y-37752000D01*
X39546800Y-40412000D02*
X42146800Y-40412000D01*
X36946800Y-40412000D02*
X36946800Y-39082000D01*
%TO.C,J2_Buck1*%
X20320000Y-16540000D02*
X20320000Y-21680000D01*
X18990000Y-13940000D02*
X20320000Y-13940000D01*
X17660000Y-16540000D02*
X17660000Y-21680000D01*
X20320000Y-13940000D02*
X20320000Y-15270000D01*
X17660000Y-16540000D02*
X20320000Y-16540000D01*
X17660000Y-21680000D02*
X20320000Y-21680000D01*
%TD*%
M02*
