%TF.GenerationSoftware,KiCad,Pcbnew,6.0.4-6f826c9f35~116~ubuntu20.04.1*%
%TF.CreationDate,2022-04-05T15:18:14+02:00*%
%TF.ProjectId,TestProject,54657374-5072-46f6-9a65-63742e6b6963,rev?*%
%TF.SameCoordinates,Original*%
%TF.FileFunction,Legend,Top*%
%TF.FilePolarity,Positive*%
%FSLAX46Y46*%
G04 Gerber Fmt 4.6, Leading zero omitted, Abs format (unit mm)*
G04 Created by KiCad (PCBNEW 6.0.4-6f826c9f35~116~ubuntu20.04.1) date 2022-04-05 15:18:14*
%MOMM*%
%LPD*%
G01*
G04 APERTURE LIST*
%ADD10C,0.150000*%
%ADD11C,0.300000*%
%ADD12C,0.120000*%
G04 APERTURE END LIST*
D10*
X25019047Y-33091428D02*
X25780952Y-33091428D01*
D11*
X34024285Y-22038571D02*
X34524285Y-23538571D01*
X35024285Y-22038571D01*
X35524285Y-23538571D02*
X35524285Y-22538571D01*
X35524285Y-22038571D02*
X35452857Y-22110000D01*
X35524285Y-22181428D01*
X35595714Y-22110000D01*
X35524285Y-22038571D01*
X35524285Y-22181428D01*
X36238571Y-22538571D02*
X36238571Y-23538571D01*
X36238571Y-22681428D02*
X36310000Y-22610000D01*
X36452857Y-22538571D01*
X36667142Y-22538571D01*
X36810000Y-22610000D01*
X36881428Y-22752857D01*
X36881428Y-23538571D01*
D10*
X25019047Y-20391428D02*
X25780952Y-20391428D01*
X25400000Y-20772380D02*
X25400000Y-20010476D01*
D11*
X33274285Y-27118571D02*
X33774285Y-28618571D01*
X34274285Y-27118571D01*
X34988571Y-28618571D02*
X34845714Y-28547142D01*
X34774285Y-28475714D01*
X34702857Y-28332857D01*
X34702857Y-27904285D01*
X34774285Y-27761428D01*
X34845714Y-27690000D01*
X34988571Y-27618571D01*
X35202857Y-27618571D01*
X35345714Y-27690000D01*
X35417142Y-27761428D01*
X35488571Y-27904285D01*
X35488571Y-28332857D01*
X35417142Y-28475714D01*
X35345714Y-28547142D01*
X35202857Y-28618571D01*
X34988571Y-28618571D01*
X36774285Y-27618571D02*
X36774285Y-28618571D01*
X36131428Y-27618571D02*
X36131428Y-28404285D01*
X36202857Y-28547142D01*
X36345714Y-28618571D01*
X36560000Y-28618571D01*
X36702857Y-28547142D01*
X36774285Y-28475714D01*
X37274285Y-27618571D02*
X37845714Y-27618571D01*
X37488571Y-27118571D02*
X37488571Y-28404285D01*
X37560000Y-28547142D01*
X37702857Y-28618571D01*
X37845714Y-28618571D01*
X34417142Y-24650000D02*
X34274285Y-24578571D01*
X34060000Y-24578571D01*
X33845714Y-24650000D01*
X33702857Y-24792857D01*
X33631428Y-24935714D01*
X33560000Y-25221428D01*
X33560000Y-25435714D01*
X33631428Y-25721428D01*
X33702857Y-25864285D01*
X33845714Y-26007142D01*
X34060000Y-26078571D01*
X34202857Y-26078571D01*
X34417142Y-26007142D01*
X34488571Y-25935714D01*
X34488571Y-25435714D01*
X34202857Y-25435714D01*
X35131428Y-26078571D02*
X35131428Y-24578571D01*
X35988571Y-26078571D01*
X35988571Y-24578571D01*
X36702857Y-26078571D02*
X36702857Y-24578571D01*
X37060000Y-24578571D01*
X37274285Y-24650000D01*
X37417142Y-24792857D01*
X37488571Y-24935714D01*
X37560000Y-25221428D01*
X37560000Y-25435714D01*
X37488571Y-25721428D01*
X37417142Y-25864285D01*
X37274285Y-26007142D01*
X37060000Y-26078571D01*
X36702857Y-26078571D01*
X15288571Y-15132857D02*
X15788571Y-15132857D01*
X16002857Y-15918571D02*
X15288571Y-15918571D01*
X15288571Y-14418571D01*
X16002857Y-14418571D01*
X17145714Y-15132857D02*
X17360000Y-15204285D01*
X17431428Y-15275714D01*
X17502857Y-15418571D01*
X17502857Y-15632857D01*
X17431428Y-15775714D01*
X17360000Y-15847142D01*
X17217142Y-15918571D01*
X16645714Y-15918571D01*
X16645714Y-14418571D01*
X17145714Y-14418571D01*
X17288571Y-14490000D01*
X17360000Y-14561428D01*
X17431428Y-14704285D01*
X17431428Y-14847142D01*
X17360000Y-14990000D01*
X17288571Y-15061428D01*
X17145714Y-15132857D01*
X16645714Y-15132857D01*
X18360000Y-15918571D02*
X18217142Y-15847142D01*
X18145714Y-15775714D01*
X18074285Y-15632857D01*
X18074285Y-15204285D01*
X18145714Y-15061428D01*
X18217142Y-14990000D01*
X18360000Y-14918571D01*
X18574285Y-14918571D01*
X18717142Y-14990000D01*
X18788571Y-15061428D01*
X18860000Y-15204285D01*
X18860000Y-15632857D01*
X18788571Y-15775714D01*
X18717142Y-15847142D01*
X18574285Y-15918571D01*
X18360000Y-15918571D01*
X20145714Y-15918571D02*
X20145714Y-15132857D01*
X20074285Y-14990000D01*
X19931428Y-14918571D01*
X19645714Y-14918571D01*
X19502857Y-14990000D01*
X20145714Y-15847142D02*
X20002857Y-15918571D01*
X19645714Y-15918571D01*
X19502857Y-15847142D01*
X19431428Y-15704285D01*
X19431428Y-15561428D01*
X19502857Y-15418571D01*
X19645714Y-15347142D01*
X20002857Y-15347142D01*
X20145714Y-15275714D01*
X20860000Y-15918571D02*
X20860000Y-14918571D01*
X20860000Y-15204285D02*
X20931428Y-15061428D01*
X21002857Y-14990000D01*
X21145714Y-14918571D01*
X21288571Y-14918571D01*
X22431428Y-15918571D02*
X22431428Y-14418571D01*
X22431428Y-15847142D02*
X22288571Y-15918571D01*
X22002857Y-15918571D01*
X21860000Y-15847142D01*
X21788571Y-15775714D01*
X21717142Y-15632857D01*
X21717142Y-15204285D01*
X21788571Y-15061428D01*
X21860000Y-14990000D01*
X22002857Y-14918571D01*
X22288571Y-14918571D01*
X22431428Y-14990000D01*
X24145714Y-14918571D02*
X24502857Y-15918571D01*
X24860000Y-14918571D01*
X26217142Y-15918571D02*
X25360000Y-15918571D01*
X25788571Y-15918571D02*
X25788571Y-14418571D01*
X25645714Y-14632857D01*
X25502857Y-14775714D01*
X25360000Y-14847142D01*
X26860000Y-15775714D02*
X26931428Y-15847142D01*
X26860000Y-15918571D01*
X26788571Y-15847142D01*
X26860000Y-15775714D01*
X26860000Y-15918571D01*
X27860000Y-14418571D02*
X28002857Y-14418571D01*
X28145714Y-14490000D01*
X28217142Y-14561428D01*
X28288571Y-14704285D01*
X28360000Y-14990000D01*
X28360000Y-15347142D01*
X28288571Y-15632857D01*
X28217142Y-15775714D01*
X28145714Y-15847142D01*
X28002857Y-15918571D01*
X27860000Y-15918571D01*
X27717142Y-15847142D01*
X27645714Y-15775714D01*
X27574285Y-15632857D01*
X27502857Y-15347142D01*
X27502857Y-14990000D01*
X27574285Y-14704285D01*
X27645714Y-14561428D01*
X27717142Y-14490000D01*
X27860000Y-14418571D01*
X29002857Y-15775714D02*
X29074285Y-15847142D01*
X29002857Y-15918571D01*
X28931428Y-15847142D01*
X29002857Y-15775714D01*
X29002857Y-15918571D01*
X30002857Y-14418571D02*
X30145714Y-14418571D01*
X30288571Y-14490000D01*
X30360000Y-14561428D01*
X30431428Y-14704285D01*
X30502857Y-14990000D01*
X30502857Y-15347142D01*
X30431428Y-15632857D01*
X30360000Y-15775714D01*
X30288571Y-15847142D01*
X30145714Y-15918571D01*
X30002857Y-15918571D01*
X29860000Y-15847142D01*
X29788571Y-15775714D01*
X29717142Y-15632857D01*
X29645714Y-15347142D01*
X29645714Y-14990000D01*
X29717142Y-14704285D01*
X29788571Y-14561428D01*
X29860000Y-14490000D01*
X30002857Y-14418571D01*
D10*
%TO.C,J3_MCU_Right1*%
X71129761Y-14462380D02*
X71129761Y-15176666D01*
X71082142Y-15319523D01*
X70986904Y-15414761D01*
X70844047Y-15462380D01*
X70748809Y-15462380D01*
X71510714Y-14462380D02*
X72129761Y-14462380D01*
X71796428Y-14843333D01*
X71939285Y-14843333D01*
X72034523Y-14890952D01*
X72082142Y-14938571D01*
X72129761Y-15033809D01*
X72129761Y-15271904D01*
X72082142Y-15367142D01*
X72034523Y-15414761D01*
X71939285Y-15462380D01*
X71653571Y-15462380D01*
X71558333Y-15414761D01*
X71510714Y-15367142D01*
X72320238Y-15557619D02*
X73082142Y-15557619D01*
X73320238Y-15462380D02*
X73320238Y-14462380D01*
X73653571Y-15176666D01*
X73986904Y-14462380D01*
X73986904Y-15462380D01*
X75034523Y-15367142D02*
X74986904Y-15414761D01*
X74844047Y-15462380D01*
X74748809Y-15462380D01*
X74605952Y-15414761D01*
X74510714Y-15319523D01*
X74463095Y-15224285D01*
X74415476Y-15033809D01*
X74415476Y-14890952D01*
X74463095Y-14700476D01*
X74510714Y-14605238D01*
X74605952Y-14510000D01*
X74748809Y-14462380D01*
X74844047Y-14462380D01*
X74986904Y-14510000D01*
X75034523Y-14557619D01*
X75463095Y-14462380D02*
X75463095Y-15271904D01*
X75510714Y-15367142D01*
X75558333Y-15414761D01*
X75653571Y-15462380D01*
X75844047Y-15462380D01*
X75939285Y-15414761D01*
X75986904Y-15367142D01*
X76034523Y-15271904D01*
X76034523Y-14462380D01*
X76272619Y-15557619D02*
X77034523Y-15557619D01*
X77844047Y-15462380D02*
X77510714Y-14986190D01*
X77272619Y-15462380D02*
X77272619Y-14462380D01*
X77653571Y-14462380D01*
X77748809Y-14510000D01*
X77796428Y-14557619D01*
X77844047Y-14652857D01*
X77844047Y-14795714D01*
X77796428Y-14890952D01*
X77748809Y-14938571D01*
X77653571Y-14986190D01*
X77272619Y-14986190D01*
X78272619Y-15462380D02*
X78272619Y-14795714D01*
X78272619Y-14462380D02*
X78225000Y-14510000D01*
X78272619Y-14557619D01*
X78320238Y-14510000D01*
X78272619Y-14462380D01*
X78272619Y-14557619D01*
X79177380Y-14795714D02*
X79177380Y-15605238D01*
X79129761Y-15700476D01*
X79082142Y-15748095D01*
X78986904Y-15795714D01*
X78844047Y-15795714D01*
X78748809Y-15748095D01*
X79177380Y-15414761D02*
X79082142Y-15462380D01*
X78891666Y-15462380D01*
X78796428Y-15414761D01*
X78748809Y-15367142D01*
X78701190Y-15271904D01*
X78701190Y-14986190D01*
X78748809Y-14890952D01*
X78796428Y-14843333D01*
X78891666Y-14795714D01*
X79082142Y-14795714D01*
X79177380Y-14843333D01*
X79653571Y-15462380D02*
X79653571Y-14462380D01*
X80082142Y-15462380D02*
X80082142Y-14938571D01*
X80034523Y-14843333D01*
X79939285Y-14795714D01*
X79796428Y-14795714D01*
X79701190Y-14843333D01*
X79653571Y-14890952D01*
X80415476Y-14795714D02*
X80796428Y-14795714D01*
X80558333Y-14462380D02*
X80558333Y-15319523D01*
X80605952Y-15414761D01*
X80701190Y-15462380D01*
X80796428Y-15462380D01*
X81653571Y-15462380D02*
X81082142Y-15462380D01*
X81367857Y-15462380D02*
X81367857Y-14462380D01*
X81272619Y-14605238D01*
X81177380Y-14700476D01*
X81082142Y-14748095D01*
%TO.C,J1_XT60*%
X14472380Y-29403809D02*
X15186666Y-29403809D01*
X15329523Y-29451428D01*
X15424761Y-29546666D01*
X15472380Y-29689523D01*
X15472380Y-29784761D01*
X15472380Y-28403809D02*
X15472380Y-28975238D01*
X15472380Y-28689523D02*
X14472380Y-28689523D01*
X14615238Y-28784761D01*
X14710476Y-28880000D01*
X14758095Y-28975238D01*
X15567619Y-28213333D02*
X15567619Y-27451428D01*
X14472380Y-27308571D02*
X15472380Y-26641904D01*
X14472380Y-26641904D02*
X15472380Y-27308571D01*
X14472380Y-26403809D02*
X14472380Y-25832380D01*
X15472380Y-26118095D02*
X14472380Y-26118095D01*
X14472380Y-25070476D02*
X14472380Y-25260952D01*
X14520000Y-25356190D01*
X14567619Y-25403809D01*
X14710476Y-25499047D01*
X14900952Y-25546666D01*
X15281904Y-25546666D01*
X15377142Y-25499047D01*
X15424761Y-25451428D01*
X15472380Y-25356190D01*
X15472380Y-25165714D01*
X15424761Y-25070476D01*
X15377142Y-25022857D01*
X15281904Y-24975238D01*
X15043809Y-24975238D01*
X14948571Y-25022857D01*
X14900952Y-25070476D01*
X14853333Y-25165714D01*
X14853333Y-25356190D01*
X14900952Y-25451428D01*
X14948571Y-25499047D01*
X15043809Y-25546666D01*
X14472380Y-24356190D02*
X14472380Y-24260952D01*
X14520000Y-24165714D01*
X14567619Y-24118095D01*
X14662857Y-24070476D01*
X14853333Y-24022857D01*
X15091428Y-24022857D01*
X15281904Y-24070476D01*
X15377142Y-24118095D01*
X15424761Y-24165714D01*
X15472380Y-24260952D01*
X15472380Y-24356190D01*
X15424761Y-24451428D01*
X15377142Y-24499047D01*
X15281904Y-24546666D01*
X15091428Y-24594285D01*
X14853333Y-24594285D01*
X14662857Y-24546666D01*
X14567619Y-24499047D01*
X14520000Y-24451428D01*
X14472380Y-24356190D01*
%TO.C,J3_MCU_Left1*%
X56413571Y-14462380D02*
X56413571Y-15176666D01*
X56365952Y-15319523D01*
X56270714Y-15414761D01*
X56127857Y-15462380D01*
X56032619Y-15462380D01*
X56794523Y-14462380D02*
X57413571Y-14462380D01*
X57080238Y-14843333D01*
X57223095Y-14843333D01*
X57318333Y-14890952D01*
X57365952Y-14938571D01*
X57413571Y-15033809D01*
X57413571Y-15271904D01*
X57365952Y-15367142D01*
X57318333Y-15414761D01*
X57223095Y-15462380D01*
X56937380Y-15462380D01*
X56842142Y-15414761D01*
X56794523Y-15367142D01*
X57604047Y-15557619D02*
X58365952Y-15557619D01*
X58604047Y-15462380D02*
X58604047Y-14462380D01*
X58937380Y-15176666D01*
X59270714Y-14462380D01*
X59270714Y-15462380D01*
X60318333Y-15367142D02*
X60270714Y-15414761D01*
X60127857Y-15462380D01*
X60032619Y-15462380D01*
X59889761Y-15414761D01*
X59794523Y-15319523D01*
X59746904Y-15224285D01*
X59699285Y-15033809D01*
X59699285Y-14890952D01*
X59746904Y-14700476D01*
X59794523Y-14605238D01*
X59889761Y-14510000D01*
X60032619Y-14462380D01*
X60127857Y-14462380D01*
X60270714Y-14510000D01*
X60318333Y-14557619D01*
X60746904Y-14462380D02*
X60746904Y-15271904D01*
X60794523Y-15367142D01*
X60842142Y-15414761D01*
X60937380Y-15462380D01*
X61127857Y-15462380D01*
X61223095Y-15414761D01*
X61270714Y-15367142D01*
X61318333Y-15271904D01*
X61318333Y-14462380D01*
X61556428Y-15557619D02*
X62318333Y-15557619D01*
X63032619Y-15462380D02*
X62556428Y-15462380D01*
X62556428Y-14462380D01*
X63746904Y-15414761D02*
X63651666Y-15462380D01*
X63461190Y-15462380D01*
X63365952Y-15414761D01*
X63318333Y-15319523D01*
X63318333Y-14938571D01*
X63365952Y-14843333D01*
X63461190Y-14795714D01*
X63651666Y-14795714D01*
X63746904Y-14843333D01*
X63794523Y-14938571D01*
X63794523Y-15033809D01*
X63318333Y-15129047D01*
X64080238Y-14795714D02*
X64461190Y-14795714D01*
X64223095Y-15462380D02*
X64223095Y-14605238D01*
X64270714Y-14510000D01*
X64365952Y-14462380D01*
X64461190Y-14462380D01*
X64651666Y-14795714D02*
X65032619Y-14795714D01*
X64794523Y-14462380D02*
X64794523Y-15319523D01*
X64842142Y-15414761D01*
X64937380Y-15462380D01*
X65032619Y-15462380D01*
X65889761Y-15462380D02*
X65318333Y-15462380D01*
X65604047Y-15462380D02*
X65604047Y-14462380D01*
X65508809Y-14605238D01*
X65413571Y-14700476D01*
X65318333Y-14748095D01*
%TO.C,J5_Button1*%
X55793737Y-36121510D02*
X55793737Y-36835796D01*
X55746118Y-36978653D01*
X55650880Y-37073891D01*
X55508023Y-37121510D01*
X55412785Y-37121510D01*
X56746118Y-36121510D02*
X56269927Y-36121510D01*
X56222308Y-36597701D01*
X56269927Y-36550082D01*
X56365165Y-36502463D01*
X56603261Y-36502463D01*
X56698499Y-36550082D01*
X56746118Y-36597701D01*
X56793737Y-36692939D01*
X56793737Y-36931034D01*
X56746118Y-37026272D01*
X56698499Y-37073891D01*
X56603261Y-37121510D01*
X56365165Y-37121510D01*
X56269927Y-37073891D01*
X56222308Y-37026272D01*
X56984213Y-37216749D02*
X57746118Y-37216749D01*
X58317546Y-36597701D02*
X58460404Y-36645320D01*
X58508023Y-36692939D01*
X58555642Y-36788177D01*
X58555642Y-36931034D01*
X58508023Y-37026272D01*
X58460404Y-37073891D01*
X58365165Y-37121510D01*
X57984213Y-37121510D01*
X57984213Y-36121510D01*
X58317546Y-36121510D01*
X58412785Y-36169130D01*
X58460404Y-36216749D01*
X58508023Y-36311987D01*
X58508023Y-36407225D01*
X58460404Y-36502463D01*
X58412785Y-36550082D01*
X58317546Y-36597701D01*
X57984213Y-36597701D01*
X59412785Y-36454844D02*
X59412785Y-37121510D01*
X58984213Y-36454844D02*
X58984213Y-36978653D01*
X59031832Y-37073891D01*
X59127070Y-37121510D01*
X59269927Y-37121510D01*
X59365165Y-37073891D01*
X59412785Y-37026272D01*
X59746118Y-36454844D02*
X60127070Y-36454844D01*
X59888975Y-36121510D02*
X59888975Y-36978653D01*
X59936594Y-37073891D01*
X60031832Y-37121510D01*
X60127070Y-37121510D01*
X60317546Y-36454844D02*
X60698499Y-36454844D01*
X60460404Y-36121510D02*
X60460404Y-36978653D01*
X60508023Y-37073891D01*
X60603261Y-37121510D01*
X60698499Y-37121510D01*
X61174689Y-37121510D02*
X61079451Y-37073891D01*
X61031832Y-37026272D01*
X60984213Y-36931034D01*
X60984213Y-36645320D01*
X61031832Y-36550082D01*
X61079451Y-36502463D01*
X61174689Y-36454844D01*
X61317546Y-36454844D01*
X61412785Y-36502463D01*
X61460404Y-36550082D01*
X61508023Y-36645320D01*
X61508023Y-36931034D01*
X61460404Y-37026272D01*
X61412785Y-37073891D01*
X61317546Y-37121510D01*
X61174689Y-37121510D01*
X61936594Y-36454844D02*
X61936594Y-37121510D01*
X61936594Y-36550082D02*
X61984213Y-36502463D01*
X62079451Y-36454844D01*
X62222308Y-36454844D01*
X62317546Y-36502463D01*
X62365165Y-36597701D01*
X62365165Y-37121510D01*
X63365165Y-37121510D02*
X62793737Y-37121510D01*
X63079451Y-37121510D02*
X63079451Y-36121510D01*
X62984213Y-36264368D01*
X62888975Y-36359606D01*
X62793737Y-36407225D01*
%TO.C,J4_LED1*%
X83837380Y-19542380D02*
X83837380Y-20256666D01*
X83789761Y-20399523D01*
X83694523Y-20494761D01*
X83551666Y-20542380D01*
X83456428Y-20542380D01*
X84742142Y-19875714D02*
X84742142Y-20542380D01*
X84504047Y-19494761D02*
X84265952Y-20209047D01*
X84885000Y-20209047D01*
X85027857Y-20637619D02*
X85789761Y-20637619D01*
X86504047Y-20542380D02*
X86027857Y-20542380D01*
X86027857Y-19542380D01*
X86837380Y-20018571D02*
X87170714Y-20018571D01*
X87313571Y-20542380D02*
X86837380Y-20542380D01*
X86837380Y-19542380D01*
X87313571Y-19542380D01*
X87742142Y-20542380D02*
X87742142Y-19542380D01*
X87980238Y-19542380D01*
X88123095Y-19590000D01*
X88218333Y-19685238D01*
X88265952Y-19780476D01*
X88313571Y-19970952D01*
X88313571Y-20113809D01*
X88265952Y-20304285D01*
X88218333Y-20399523D01*
X88123095Y-20494761D01*
X87980238Y-20542380D01*
X87742142Y-20542380D01*
X89265952Y-20542380D02*
X88694523Y-20542380D01*
X88980238Y-20542380D02*
X88980238Y-19542380D01*
X88885000Y-19685238D01*
X88789761Y-19780476D01*
X88694523Y-19828095D01*
%TO.C,J2_Buck1*%
X37688809Y-19542380D02*
X37688809Y-20256666D01*
X37641190Y-20399523D01*
X37545952Y-20494761D01*
X37403095Y-20542380D01*
X37307857Y-20542380D01*
X38117380Y-19637619D02*
X38165000Y-19590000D01*
X38260238Y-19542380D01*
X38498333Y-19542380D01*
X38593571Y-19590000D01*
X38641190Y-19637619D01*
X38688809Y-19732857D01*
X38688809Y-19828095D01*
X38641190Y-19970952D01*
X38069761Y-20542380D01*
X38688809Y-20542380D01*
X38879285Y-20637619D02*
X39641190Y-20637619D01*
X40212619Y-20018571D02*
X40355476Y-20066190D01*
X40403095Y-20113809D01*
X40450714Y-20209047D01*
X40450714Y-20351904D01*
X40403095Y-20447142D01*
X40355476Y-20494761D01*
X40260238Y-20542380D01*
X39879285Y-20542380D01*
X39879285Y-19542380D01*
X40212619Y-19542380D01*
X40307857Y-19590000D01*
X40355476Y-19637619D01*
X40403095Y-19732857D01*
X40403095Y-19828095D01*
X40355476Y-19923333D01*
X40307857Y-19970952D01*
X40212619Y-20018571D01*
X39879285Y-20018571D01*
X41307857Y-19875714D02*
X41307857Y-20542380D01*
X40879285Y-19875714D02*
X40879285Y-20399523D01*
X40926904Y-20494761D01*
X41022142Y-20542380D01*
X41165000Y-20542380D01*
X41260238Y-20494761D01*
X41307857Y-20447142D01*
X42212619Y-20494761D02*
X42117380Y-20542380D01*
X41926904Y-20542380D01*
X41831666Y-20494761D01*
X41784047Y-20447142D01*
X41736428Y-20351904D01*
X41736428Y-20066190D01*
X41784047Y-19970952D01*
X41831666Y-19923333D01*
X41926904Y-19875714D01*
X42117380Y-19875714D01*
X42212619Y-19923333D01*
X42641190Y-20542380D02*
X42641190Y-19542380D01*
X42736428Y-20161428D02*
X43022142Y-20542380D01*
X43022142Y-19875714D02*
X42641190Y-20256666D01*
X43974523Y-20542380D02*
X43403095Y-20542380D01*
X43688809Y-20542380D02*
X43688809Y-19542380D01*
X43593571Y-19685238D01*
X43498333Y-19780476D01*
X43403095Y-19828095D01*
D12*
%TO.C,J3_MCU_Right1*%
X76225000Y-16450000D02*
X77555000Y-16450000D01*
X74895000Y-19050000D02*
X77555000Y-19050000D01*
X77555000Y-19050000D02*
X77555000Y-34350000D01*
X74895000Y-34350000D02*
X77555000Y-34350000D01*
X74895000Y-19050000D02*
X74895000Y-34350000D01*
X77555000Y-16450000D02*
X77555000Y-17780000D01*
%TO.C,J1_XT60*%
X16170000Y-31880000D02*
X18720000Y-34730000D01*
X24470000Y-19030000D02*
X16170000Y-19030000D01*
X21870000Y-34730000D02*
X24470000Y-31880000D01*
X16170000Y-19030000D02*
X16170000Y-31880000D01*
X24470000Y-31880000D02*
X24470000Y-19030000D01*
X18720000Y-34730000D02*
X21870000Y-34730000D01*
%TO.C,J3_MCU_Left1*%
X62315000Y-16450000D02*
X62315000Y-17780000D01*
X59655000Y-19050000D02*
X62315000Y-19050000D01*
X60985000Y-16450000D02*
X62315000Y-16450000D01*
X59655000Y-19050000D02*
X59655000Y-34350000D01*
X62315000Y-19050000D02*
X62315000Y-34350000D01*
X59655000Y-34350000D02*
X62315000Y-34350000D01*
%TO.C,J5_Button1*%
X49470000Y-36890000D02*
X49470000Y-35560000D01*
X52070000Y-36890000D02*
X54670000Y-36890000D01*
X54670000Y-36890000D02*
X54670000Y-34230000D01*
X52070000Y-34230000D02*
X54670000Y-34230000D01*
X52070000Y-36890000D02*
X52070000Y-34230000D01*
X50800000Y-36890000D02*
X49470000Y-36890000D01*
%TO.C,J4_LED1*%
X85055000Y-24130000D02*
X85055000Y-29270000D01*
X86385000Y-21530000D02*
X87715000Y-21530000D01*
X85055000Y-29270000D02*
X87715000Y-29270000D01*
X87715000Y-24130000D02*
X87715000Y-29270000D01*
X85055000Y-24130000D02*
X87715000Y-24130000D01*
X87715000Y-21530000D02*
X87715000Y-22860000D01*
%TO.C,J2_Buck1*%
X39335000Y-29270000D02*
X41995000Y-29270000D01*
X39335000Y-24130000D02*
X41995000Y-24130000D01*
X41995000Y-21530000D02*
X41995000Y-22860000D01*
X39335000Y-24130000D02*
X39335000Y-29270000D01*
X40665000Y-21530000D02*
X41995000Y-21530000D01*
X41995000Y-24130000D02*
X41995000Y-29270000D01*
%TD*%
M02*
