M48
; DRILL file {KiCad 6.0.4-6f826c9f35~116~ubuntu20.04.1} date on. 06. april 2022 kl. 08.17 +0200
; FORMAT={-:-/ absolute / inch / decimal}
; #@! TF.CreationDate,2022-04-06T08:17:52+02:00
; #@! TF.GenerationSoftware,Kicad,Pcbnew,6.0.4-6f826c9f35~116~ubuntu20.04.1
; #@! TF.FileFunction,Plated,1,2,PTH
FMAT,2
INCH
; #@! TA.AperFunction,Plated,PTH,ComponentDrill
T1C0.0394
; #@! TA.AperFunction,Plated,PTH,ComponentDrill
T2C0.1772
%
G90
G05
T1
X0.7476Y-0.6012
X0.7476Y-0.7012
X0.7476Y-0.8012
X1.499Y-0.6992
X1.499Y-0.7992
X1.499Y-0.8992
X1.499Y-0.9992
X1.499Y-1.0992
X1.499Y-1.1992
X1.499Y-1.2992
X1.507Y-1.5387
X1.607Y-1.5387
X1.9Y-1.542
X2.0Y-1.542
X2.099Y-0.6984
X2.099Y-0.7984
X2.099Y-0.8984
X2.099Y-0.9984
X2.099Y-1.0984
X2.099Y-1.1984
X2.099Y-1.2984
X2.1Y-1.542
T2
X0.7583Y-1.3
X1.0417Y-1.3
T0
M30
