%TF.GenerationSoftware,KiCad,Pcbnew,6.0.4-6f826c9f35~116~ubuntu20.04.1*%
%TF.CreationDate,2022-04-11T14:40:54+02:00*%
%TF.ProjectId,TestProject,54657374-5072-46f6-9a65-63742e6b6963,rev?*%
%TF.SameCoordinates,Original*%
%TF.FileFunction,Legend,Top*%
%TF.FilePolarity,Positive*%
%FSLAX46Y46*%
G04 Gerber Fmt 4.6, Leading zero omitted, Abs format (unit mm)*
G04 Created by KiCad (PCBNEW 6.0.4-6f826c9f35~116~ubuntu20.04.1) date 2022-04-11 14:40:54*
%MOMM*%
%LPD*%
G01*
G04 APERTURE LIST*
%ADD10C,0.250000*%
%ADD11C,0.150000*%
%ADD12C,0.300000*%
%ADD13C,0.120000*%
G04 APERTURE END LIST*
D10*
X19739546Y-14720597D02*
X20072879Y-15720597D01*
X20406213Y-14720597D01*
X20739546Y-15720597D02*
X20739546Y-15053931D01*
X20739546Y-14720597D02*
X20691927Y-14768217D01*
X20739546Y-14815836D01*
X20787165Y-14768217D01*
X20739546Y-14720597D01*
X20739546Y-14815836D01*
X21215736Y-15053931D02*
X21215736Y-15720597D01*
X21215736Y-15149169D02*
X21263356Y-15101550D01*
X21358594Y-15053931D01*
X21501451Y-15053931D01*
X21596689Y-15101550D01*
X21644308Y-15196788D01*
X21644308Y-15720597D01*
X51300000Y-36803649D02*
X51347619Y-36708411D01*
X51347619Y-36565554D01*
X51300000Y-36422696D01*
X51204761Y-36327458D01*
X51109523Y-36279839D01*
X50919047Y-36232220D01*
X50776190Y-36232220D01*
X50585714Y-36279839D01*
X50490476Y-36327458D01*
X50395238Y-36422696D01*
X50347619Y-36565554D01*
X50347619Y-36660792D01*
X50395238Y-36803649D01*
X50442857Y-36851268D01*
X50776190Y-36851268D01*
X50776190Y-36660792D01*
X50347619Y-37279839D02*
X51347619Y-37279839D01*
X50347619Y-37851268D01*
X51347619Y-37851268D01*
X50347619Y-38327458D02*
X51347619Y-38327458D01*
X51347619Y-38565554D01*
X51300000Y-38708411D01*
X51204761Y-38803649D01*
X51109523Y-38851268D01*
X50919047Y-38898887D01*
X50776190Y-38898887D01*
X50585714Y-38851268D01*
X50490476Y-38803649D01*
X50395238Y-38708411D01*
X50347619Y-38565554D01*
X50347619Y-38327458D01*
D11*
X51145176Y-16522619D02*
X51335652Y-16379761D01*
X51526128Y-16522619D01*
X49692795Y-18037380D02*
X49692795Y-18846904D01*
X49740414Y-18942142D01*
X49788033Y-18989761D01*
X49883271Y-19037380D01*
X50073747Y-19037380D01*
X50168985Y-18989761D01*
X50216604Y-18942142D01*
X50264223Y-18846904D01*
X50264223Y-18037380D01*
X50692795Y-18989761D02*
X50835652Y-19037380D01*
X51073747Y-19037380D01*
X51168985Y-18989761D01*
X51216604Y-18942142D01*
X51264223Y-18846904D01*
X51264223Y-18751666D01*
X51216604Y-18656428D01*
X51168985Y-18608809D01*
X51073747Y-18561190D01*
X50883271Y-18513571D01*
X50788033Y-18465952D01*
X50740414Y-18418333D01*
X50692795Y-18323095D01*
X50692795Y-18227857D01*
X50740414Y-18132619D01*
X50788033Y-18085000D01*
X50883271Y-18037380D01*
X51121366Y-18037380D01*
X51264223Y-18085000D01*
X52026128Y-18513571D02*
X52168985Y-18561190D01*
X52216604Y-18608809D01*
X52264223Y-18704047D01*
X52264223Y-18846904D01*
X52216604Y-18942142D01*
X52168985Y-18989761D01*
X52073747Y-19037380D01*
X51692795Y-19037380D01*
X51692795Y-18037380D01*
X52026128Y-18037380D01*
X52121366Y-18085000D01*
X52168985Y-18132619D01*
X52216604Y-18227857D01*
X52216604Y-18323095D01*
X52168985Y-18418333D01*
X52121366Y-18465952D01*
X52026128Y-18513571D01*
X51692795Y-18513571D01*
D10*
X47855238Y-36589363D02*
X47807619Y-36732220D01*
X47807619Y-36970315D01*
X47855238Y-37065554D01*
X47902857Y-37113173D01*
X47998095Y-37160792D01*
X48093333Y-37160792D01*
X48188571Y-37113173D01*
X48236190Y-37065554D01*
X48283809Y-36970315D01*
X48331428Y-36779839D01*
X48379047Y-36684601D01*
X48426666Y-36636982D01*
X48521904Y-36589363D01*
X48617142Y-36589363D01*
X48712380Y-36636982D01*
X48760000Y-36684601D01*
X48807619Y-36779839D01*
X48807619Y-37017934D01*
X48760000Y-37160792D01*
X47807619Y-37589363D02*
X48474285Y-37589363D01*
X48807619Y-37589363D02*
X48760000Y-37541744D01*
X48712380Y-37589363D01*
X48760000Y-37636982D01*
X48807619Y-37589363D01*
X48712380Y-37589363D01*
X48474285Y-38494125D02*
X47664761Y-38494125D01*
X47569523Y-38446506D01*
X47521904Y-38398887D01*
X47474285Y-38303649D01*
X47474285Y-38160792D01*
X47521904Y-38065554D01*
X47855238Y-38494125D02*
X47807619Y-38398887D01*
X47807619Y-38208411D01*
X47855238Y-38113173D01*
X47902857Y-38065554D01*
X47998095Y-38017934D01*
X48283809Y-38017934D01*
X48379047Y-38065554D01*
X48426666Y-38113173D01*
X48474285Y-38208411D01*
X48474285Y-38398887D01*
X48426666Y-38494125D01*
D11*
X61307438Y-16795809D02*
X61640771Y-18395809D01*
X61974104Y-16795809D01*
X62878866Y-18243428D02*
X62831247Y-18319619D01*
X62688390Y-18395809D01*
X62593152Y-18395809D01*
X62450295Y-18319619D01*
X62355057Y-18167238D01*
X62307438Y-18014857D01*
X62259819Y-17710095D01*
X62259819Y-17481523D01*
X62307438Y-17176761D01*
X62355057Y-17024380D01*
X62450295Y-16872000D01*
X62593152Y-16795809D01*
X62688390Y-16795809D01*
X62831247Y-16872000D01*
X62878866Y-16948190D01*
X63878866Y-18243428D02*
X63831247Y-18319619D01*
X63688390Y-18395809D01*
X63593152Y-18395809D01*
X63450295Y-18319619D01*
X63355057Y-18167238D01*
X63307438Y-18014857D01*
X63259819Y-17710095D01*
X63259819Y-17481523D01*
X63307438Y-17176761D01*
X63355057Y-17024380D01*
X63450295Y-16872000D01*
X63593152Y-16795809D01*
X63688390Y-16795809D01*
X63831247Y-16872000D01*
X63878866Y-16948190D01*
X61974104Y-19448000D02*
X61878866Y-19371809D01*
X61736009Y-19371809D01*
X61593152Y-19448000D01*
X61497914Y-19600380D01*
X61450295Y-19752761D01*
X61402676Y-20057523D01*
X61402676Y-20286095D01*
X61450295Y-20590857D01*
X61497914Y-20743238D01*
X61593152Y-20895619D01*
X61736009Y-20971809D01*
X61831247Y-20971809D01*
X61974104Y-20895619D01*
X62021723Y-20819428D01*
X62021723Y-20286095D01*
X61831247Y-20286095D01*
X62450295Y-20971809D02*
X62450295Y-19371809D01*
X63021723Y-20971809D01*
X63021723Y-19371809D01*
X63497914Y-20971809D02*
X63497914Y-19371809D01*
X63736009Y-19371809D01*
X63878866Y-19448000D01*
X63974104Y-19600380D01*
X64021723Y-19752761D01*
X64069342Y-20057523D01*
X64069342Y-20286095D01*
X64021723Y-20590857D01*
X63974104Y-20743238D01*
X63878866Y-20895619D01*
X63736009Y-20971809D01*
X63497914Y-20971809D01*
X61355057Y-21947809D02*
X61974104Y-21947809D01*
X61640771Y-22557333D01*
X61783628Y-22557333D01*
X61878866Y-22633523D01*
X61926485Y-22709714D01*
X61974104Y-22862095D01*
X61974104Y-23243047D01*
X61926485Y-23395428D01*
X61878866Y-23471619D01*
X61783628Y-23547809D01*
X61497914Y-23547809D01*
X61402676Y-23471619D01*
X61355057Y-23395428D01*
X62259819Y-21947809D02*
X62593152Y-23547809D01*
X62926485Y-21947809D01*
X63164580Y-21947809D02*
X63783628Y-21947809D01*
X63450295Y-22557333D01*
X63593152Y-22557333D01*
X63688390Y-22633523D01*
X63736009Y-22709714D01*
X63783628Y-22862095D01*
X63783628Y-23243047D01*
X63736009Y-23395428D01*
X63688390Y-23471619D01*
X63593152Y-23547809D01*
X63307438Y-23547809D01*
X63212200Y-23471619D01*
X63164580Y-23395428D01*
X61974104Y-26123809D02*
X61402676Y-26123809D01*
X61688390Y-26123809D02*
X61688390Y-24523809D01*
X61593152Y-24752380D01*
X61497914Y-24904761D01*
X61402676Y-24980952D01*
X62593152Y-24523809D02*
X62688390Y-24523809D01*
X62783628Y-24600000D01*
X62831247Y-24676190D01*
X62878866Y-24828571D01*
X62926485Y-25133333D01*
X62926485Y-25514285D01*
X62878866Y-25819047D01*
X62831247Y-25971428D01*
X62783628Y-26047619D01*
X62688390Y-26123809D01*
X62593152Y-26123809D01*
X62497914Y-26047619D01*
X62450295Y-25971428D01*
X62402676Y-25819047D01*
X62355057Y-25514285D01*
X62355057Y-25133333D01*
X62402676Y-24828571D01*
X62450295Y-24676190D01*
X62497914Y-24600000D01*
X62593152Y-24523809D01*
X61497914Y-28699809D02*
X61688390Y-28699809D01*
X61783628Y-28623619D01*
X61831247Y-28547428D01*
X61926485Y-28318857D01*
X61974104Y-28014095D01*
X61974104Y-27404571D01*
X61926485Y-27252190D01*
X61878866Y-27176000D01*
X61783628Y-27099809D01*
X61593152Y-27099809D01*
X61497914Y-27176000D01*
X61450295Y-27252190D01*
X61402676Y-27404571D01*
X61402676Y-27785523D01*
X61450295Y-27937904D01*
X61497914Y-28014095D01*
X61593152Y-28090285D01*
X61783628Y-28090285D01*
X61878866Y-28014095D01*
X61926485Y-27937904D01*
X61974104Y-27785523D01*
X61593152Y-30361523D02*
X61497914Y-30285333D01*
X61450295Y-30209142D01*
X61402676Y-30056761D01*
X61402676Y-29980571D01*
X61450295Y-29828190D01*
X61497914Y-29752000D01*
X61593152Y-29675809D01*
X61783628Y-29675809D01*
X61878866Y-29752000D01*
X61926485Y-29828190D01*
X61974104Y-29980571D01*
X61974104Y-30056761D01*
X61926485Y-30209142D01*
X61878866Y-30285333D01*
X61783628Y-30361523D01*
X61593152Y-30361523D01*
X61497914Y-30437714D01*
X61450295Y-30513904D01*
X61402676Y-30666285D01*
X61402676Y-30971047D01*
X61450295Y-31123428D01*
X61497914Y-31199619D01*
X61593152Y-31275809D01*
X61783628Y-31275809D01*
X61878866Y-31199619D01*
X61926485Y-31123428D01*
X61974104Y-30971047D01*
X61974104Y-30666285D01*
X61926485Y-30513904D01*
X61878866Y-30437714D01*
X61783628Y-30361523D01*
X61355057Y-32251809D02*
X62021723Y-32251809D01*
X61593152Y-33851809D01*
D10*
X19977641Y-19947573D02*
X20310975Y-20947573D01*
X20644308Y-19947573D01*
X21120498Y-20947573D02*
X21025260Y-20899954D01*
X20977641Y-20852335D01*
X20930022Y-20757097D01*
X20930022Y-20471383D01*
X20977641Y-20376145D01*
X21025260Y-20328526D01*
X21120498Y-20280907D01*
X21263356Y-20280907D01*
X21358594Y-20328526D01*
X21406213Y-20376145D01*
X21453832Y-20471383D01*
X21453832Y-20757097D01*
X21406213Y-20852335D01*
X21358594Y-20899954D01*
X21263356Y-20947573D01*
X21120498Y-20947573D01*
D11*
X50466666Y-24852380D02*
X50466666Y-25566666D01*
X50419047Y-25709523D01*
X50323809Y-25804761D01*
X50180952Y-25852380D01*
X50085714Y-25852380D01*
X50847619Y-24852380D02*
X51466666Y-24852380D01*
X51133333Y-25233333D01*
X51276190Y-25233333D01*
X51371428Y-25280952D01*
X51419047Y-25328571D01*
X51466666Y-25423809D01*
X51466666Y-25661904D01*
X51419047Y-25757142D01*
X51371428Y-25804761D01*
X51276190Y-25852380D01*
X50990476Y-25852380D01*
X50895238Y-25804761D01*
X50847619Y-25757142D01*
D10*
X56332013Y-36249628D02*
X55522489Y-36249628D01*
X55427251Y-36297247D01*
X55379632Y-36344866D01*
X55332013Y-36440105D01*
X55332013Y-36630581D01*
X55379632Y-36725819D01*
X55427251Y-36773438D01*
X55522489Y-36821057D01*
X56332013Y-36821057D01*
X56332013Y-37154390D02*
X56332013Y-37725819D01*
X55332013Y-37440105D02*
X56332013Y-37440105D01*
X56332013Y-37963914D02*
X55332013Y-38630581D01*
X56332013Y-38630581D02*
X55332013Y-37963914D01*
X37647619Y-37647619D02*
X38647619Y-37647619D01*
X38314285Y-38123809D02*
X37647619Y-38123809D01*
X38219047Y-38123809D02*
X38266666Y-38171428D01*
X38314285Y-38266666D01*
X38314285Y-38409523D01*
X38266666Y-38504761D01*
X38171428Y-38552380D01*
X37647619Y-38552380D01*
X58942129Y-36047720D02*
X58132605Y-36047720D01*
X58037367Y-36095339D01*
X57989748Y-36142958D01*
X57942129Y-36238196D01*
X57942129Y-36428672D01*
X57989748Y-36523910D01*
X58037367Y-36571529D01*
X58132605Y-36619148D01*
X58942129Y-36619148D01*
X57942129Y-37666767D02*
X58418319Y-37333434D01*
X57942129Y-37095339D02*
X58942129Y-37095339D01*
X58942129Y-37476291D01*
X58894510Y-37571529D01*
X58846890Y-37619148D01*
X58751652Y-37666767D01*
X58608795Y-37666767D01*
X58513557Y-37619148D01*
X58465938Y-37571529D01*
X58418319Y-37476291D01*
X58418319Y-37095339D01*
X58942129Y-38000101D02*
X57942129Y-38666767D01*
X58942129Y-38666767D02*
X57942129Y-38000101D01*
D11*
X40747080Y-16795809D02*
X40842319Y-16795809D01*
X40937557Y-16872000D01*
X40985176Y-16948190D01*
X41032795Y-17100571D01*
X41080414Y-17405333D01*
X41080414Y-17786285D01*
X41032795Y-18091047D01*
X40985176Y-18243428D01*
X40937557Y-18319619D01*
X40842319Y-18395809D01*
X40747080Y-18395809D01*
X40651842Y-18319619D01*
X40604223Y-18243428D01*
X40556604Y-18091047D01*
X40508985Y-17786285D01*
X40508985Y-17405333D01*
X40556604Y-17100571D01*
X40604223Y-16948190D01*
X40651842Y-16872000D01*
X40747080Y-16795809D01*
X41080414Y-20971809D02*
X40508985Y-20971809D01*
X40794700Y-20971809D02*
X40794700Y-19371809D01*
X40699461Y-19600380D01*
X40604223Y-19752761D01*
X40508985Y-19828952D01*
X40508985Y-22100190D02*
X40556604Y-22024000D01*
X40651842Y-21947809D01*
X40889938Y-21947809D01*
X40985176Y-22024000D01*
X41032795Y-22100190D01*
X41080414Y-22252571D01*
X41080414Y-22404952D01*
X41032795Y-22633523D01*
X40461366Y-23547809D01*
X41080414Y-23547809D01*
X40461366Y-24523809D02*
X41080414Y-24523809D01*
X40747080Y-25133333D01*
X40889938Y-25133333D01*
X40985176Y-25209523D01*
X41032795Y-25285714D01*
X41080414Y-25438095D01*
X41080414Y-25819047D01*
X41032795Y-25971428D01*
X40985176Y-26047619D01*
X40889938Y-26123809D01*
X40604223Y-26123809D01*
X40508985Y-26047619D01*
X40461366Y-25971428D01*
X40985176Y-27633142D02*
X40985176Y-28699809D01*
X40747080Y-27023619D02*
X40508985Y-28166476D01*
X41128033Y-28166476D01*
X41032795Y-29675809D02*
X40556604Y-29675809D01*
X40508985Y-30437714D01*
X40556604Y-30361523D01*
X40651842Y-30285333D01*
X40889938Y-30285333D01*
X40985176Y-30361523D01*
X41032795Y-30437714D01*
X41080414Y-30590095D01*
X41080414Y-30971047D01*
X41032795Y-31123428D01*
X40985176Y-31199619D01*
X40889938Y-31275809D01*
X40651842Y-31275809D01*
X40556604Y-31199619D01*
X40508985Y-31123428D01*
X40985176Y-32251809D02*
X40794700Y-32251809D01*
X40699461Y-32328000D01*
X40651842Y-32404190D01*
X40556604Y-32632761D01*
X40508985Y-32937523D01*
X40508985Y-33547047D01*
X40556604Y-33699428D01*
X40604223Y-33775619D01*
X40699461Y-33851809D01*
X40889938Y-33851809D01*
X40985176Y-33775619D01*
X41032795Y-33699428D01*
X41080414Y-33547047D01*
X41080414Y-33166095D01*
X41032795Y-33013714D01*
X40985176Y-32937523D01*
X40889938Y-32861333D01*
X40699461Y-32861333D01*
X40604223Y-32937523D01*
X40556604Y-33013714D01*
X40508985Y-33166095D01*
D10*
X41303333Y-36977380D02*
X41303333Y-37167856D01*
X41255714Y-37263094D01*
X41160475Y-37358333D01*
X40969999Y-37405952D01*
X40636666Y-37405952D01*
X40446190Y-37358333D01*
X40350952Y-37263094D01*
X40303333Y-37167856D01*
X40303333Y-36977380D01*
X40350952Y-36882142D01*
X40446190Y-36786904D01*
X40636666Y-36739285D01*
X40969999Y-36739285D01*
X41160475Y-36786904D01*
X41255714Y-36882142D01*
X41303333Y-36977380D01*
X40969999Y-38263094D02*
X40303333Y-38263094D01*
X40969999Y-37834523D02*
X40446190Y-37834523D01*
X40350952Y-37882142D01*
X40303333Y-37977380D01*
X40303333Y-38120237D01*
X40350952Y-38215475D01*
X40398571Y-38263094D01*
X40969999Y-38596428D02*
X40969999Y-38977380D01*
X41303333Y-38739285D02*
X40446190Y-38739285D01*
X40350952Y-38786904D01*
X40303333Y-38882142D01*
X40303333Y-38977380D01*
X20001451Y-17430103D02*
X19906213Y-17382483D01*
X19763356Y-17382483D01*
X19620498Y-17430103D01*
X19525260Y-17525341D01*
X19477641Y-17620579D01*
X19430022Y-17811055D01*
X19430022Y-17953912D01*
X19477641Y-18144388D01*
X19525260Y-18239626D01*
X19620498Y-18334864D01*
X19763356Y-18382483D01*
X19858594Y-18382483D01*
X20001451Y-18334864D01*
X20049070Y-18287245D01*
X20049070Y-17953912D01*
X19858594Y-17953912D01*
X20477641Y-18382483D02*
X20477641Y-17382483D01*
X21049070Y-18382483D01*
X21049070Y-17382483D01*
X21525260Y-18382483D02*
X21525260Y-17382483D01*
X21763356Y-17382483D01*
X21906213Y-17430103D01*
X22001451Y-17525341D01*
X22049070Y-17620579D01*
X22096689Y-17811055D01*
X22096689Y-17953912D01*
X22049070Y-18144388D01*
X22001451Y-18239626D01*
X21906213Y-18334864D01*
X21763356Y-18382483D01*
X21525260Y-18382483D01*
D12*
X20701842Y-40532857D02*
X21201842Y-40532857D01*
X21416128Y-41318571D02*
X20701842Y-41318571D01*
X20701842Y-39818571D01*
X21416128Y-39818571D01*
X22558985Y-40532857D02*
X22773271Y-40604285D01*
X22844700Y-40675714D01*
X22916128Y-40818571D01*
X22916128Y-41032857D01*
X22844700Y-41175714D01*
X22773271Y-41247142D01*
X22630414Y-41318571D01*
X22058985Y-41318571D01*
X22058985Y-39818571D01*
X22558985Y-39818571D01*
X22701842Y-39890000D01*
X22773271Y-39961428D01*
X22844700Y-40104285D01*
X22844700Y-40247142D01*
X22773271Y-40390000D01*
X22701842Y-40461428D01*
X22558985Y-40532857D01*
X22058985Y-40532857D01*
X23773271Y-41318571D02*
X23630414Y-41247142D01*
X23558985Y-41175714D01*
X23487557Y-41032857D01*
X23487557Y-40604285D01*
X23558985Y-40461428D01*
X23630414Y-40390000D01*
X23773271Y-40318571D01*
X23987557Y-40318571D01*
X24130414Y-40390000D01*
X24201842Y-40461428D01*
X24273271Y-40604285D01*
X24273271Y-41032857D01*
X24201842Y-41175714D01*
X24130414Y-41247142D01*
X23987557Y-41318571D01*
X23773271Y-41318571D01*
X25558985Y-41318571D02*
X25558985Y-40532857D01*
X25487557Y-40390000D01*
X25344700Y-40318571D01*
X25058985Y-40318571D01*
X24916128Y-40390000D01*
X25558985Y-41247142D02*
X25416128Y-41318571D01*
X25058985Y-41318571D01*
X24916128Y-41247142D01*
X24844700Y-41104285D01*
X24844700Y-40961428D01*
X24916128Y-40818571D01*
X25058985Y-40747142D01*
X25416128Y-40747142D01*
X25558985Y-40675714D01*
X26273271Y-41318571D02*
X26273271Y-40318571D01*
X26273271Y-40604285D02*
X26344700Y-40461428D01*
X26416128Y-40390000D01*
X26558985Y-40318571D01*
X26701842Y-40318571D01*
X27844700Y-41318571D02*
X27844700Y-39818571D01*
X27844700Y-41247142D02*
X27701842Y-41318571D01*
X27416128Y-41318571D01*
X27273271Y-41247142D01*
X27201842Y-41175714D01*
X27130414Y-41032857D01*
X27130414Y-40604285D01*
X27201842Y-40461428D01*
X27273271Y-40390000D01*
X27416128Y-40318571D01*
X27701842Y-40318571D01*
X27844700Y-40390000D01*
X29701842Y-41318571D02*
X29701842Y-39818571D01*
X30201842Y-40890000D01*
X30701842Y-39818571D01*
X30701842Y-41318571D01*
X31416128Y-41318571D02*
X31416128Y-39818571D01*
X31558985Y-40747142D02*
X31987557Y-41318571D01*
X31987557Y-40318571D02*
X31416128Y-40890000D01*
X33416128Y-41318571D02*
X32558985Y-41318571D01*
X32987557Y-41318571D02*
X32987557Y-39818571D01*
X32844700Y-40032857D01*
X32701842Y-40175714D01*
X32558985Y-40247142D01*
X34058985Y-41175714D02*
X34130414Y-41247142D01*
X34058985Y-41318571D01*
X33987557Y-41247142D01*
X34058985Y-41175714D01*
X34058985Y-41318571D01*
X35058985Y-39818571D02*
X35201842Y-39818571D01*
X35344700Y-39890000D01*
X35416128Y-39961428D01*
X35487557Y-40104285D01*
X35558985Y-40390000D01*
X35558985Y-40747142D01*
X35487557Y-41032857D01*
X35416128Y-41175714D01*
X35344700Y-41247142D01*
X35201842Y-41318571D01*
X35058985Y-41318571D01*
X34916128Y-41247142D01*
X34844700Y-41175714D01*
X34773271Y-41032857D01*
X34701842Y-40747142D01*
X34701842Y-40390000D01*
X34773271Y-40104285D01*
X34844700Y-39961428D01*
X34916128Y-39890000D01*
X35058985Y-39818571D01*
D10*
X46267619Y-36483394D02*
X45267619Y-36816727D01*
X46267619Y-37150061D01*
X45267619Y-37483394D02*
X45934285Y-37483394D01*
X46267619Y-37483394D02*
X46220000Y-37435775D01*
X46172380Y-37483394D01*
X46220000Y-37531013D01*
X46267619Y-37483394D01*
X46172380Y-37483394D01*
X45934285Y-37959584D02*
X45267619Y-37959584D01*
X45839047Y-37959584D02*
X45886666Y-38007204D01*
X45934285Y-38102442D01*
X45934285Y-38245299D01*
X45886666Y-38340537D01*
X45791428Y-38388156D01*
X45267619Y-38388156D01*
D11*
%TO.C,J6*%
X56866718Y-34958204D02*
X56866718Y-35672490D01*
X56819099Y-35815347D01*
X56723861Y-35910585D01*
X56581004Y-35958204D01*
X56485766Y-35958204D01*
X57771480Y-34958204D02*
X57581004Y-34958204D01*
X57485766Y-35005824D01*
X57438147Y-35053443D01*
X57342909Y-35196300D01*
X57295290Y-35386776D01*
X57295290Y-35767728D01*
X57342909Y-35862966D01*
X57390528Y-35910585D01*
X57485766Y-35958204D01*
X57676242Y-35958204D01*
X57771480Y-35910585D01*
X57819099Y-35862966D01*
X57866718Y-35767728D01*
X57866718Y-35529633D01*
X57819099Y-35434395D01*
X57771480Y-35386776D01*
X57676242Y-35339157D01*
X57485766Y-35339157D01*
X57390528Y-35386776D01*
X57342909Y-35434395D01*
X57295290Y-35529633D01*
%TO.C,J1*%
X17446666Y-27101155D02*
X17446666Y-27815441D01*
X17399047Y-27958298D01*
X17303809Y-28053536D01*
X17160952Y-28101155D01*
X17065714Y-28101155D01*
X18446666Y-28101155D02*
X17875238Y-28101155D01*
X18160952Y-28101155D02*
X18160952Y-27101155D01*
X18065714Y-27244013D01*
X17970476Y-27339251D01*
X17875238Y-27386870D01*
%TO.C,J4*%
X39036666Y-35012380D02*
X39036666Y-35726666D01*
X38989047Y-35869523D01*
X38893809Y-35964761D01*
X38750952Y-36012380D01*
X38655714Y-36012380D01*
X39941428Y-35345714D02*
X39941428Y-36012380D01*
X39703333Y-34964761D02*
X39465238Y-35679047D01*
X40084285Y-35679047D01*
%TO.C,J5*%
X47926666Y-35012380D02*
X47926666Y-35726666D01*
X47879047Y-35869523D01*
X47783809Y-35964761D01*
X47640952Y-36012380D01*
X47545714Y-36012380D01*
X48879047Y-35012380D02*
X48402857Y-35012380D01*
X48355238Y-35488571D01*
X48402857Y-35440952D01*
X48498095Y-35393333D01*
X48736190Y-35393333D01*
X48831428Y-35440952D01*
X48879047Y-35488571D01*
X48926666Y-35583809D01*
X48926666Y-35821904D01*
X48879047Y-35917142D01*
X48831428Y-35964761D01*
X48736190Y-36012380D01*
X48498095Y-36012380D01*
X48402857Y-35964761D01*
X48355238Y-35917142D01*
%TO.C,J2*%
X22681366Y-22561061D02*
X22681366Y-23275347D01*
X22633747Y-23418204D01*
X22538509Y-23513442D01*
X22395652Y-23561061D01*
X22300414Y-23561061D01*
X23109938Y-22656300D02*
X23157557Y-22608681D01*
X23252795Y-22561061D01*
X23490890Y-22561061D01*
X23586128Y-22608681D01*
X23633747Y-22656300D01*
X23681366Y-22751538D01*
X23681366Y-22846776D01*
X23633747Y-22989633D01*
X23062319Y-23561061D01*
X23681366Y-23561061D01*
D13*
%TO.C,J6*%
X59750000Y-39310000D02*
X59750000Y-40640000D01*
X57150000Y-39310000D02*
X57150000Y-41970000D01*
X57150000Y-39310000D02*
X54550000Y-39310000D01*
X57150000Y-41970000D02*
X54550000Y-41970000D01*
X58420000Y-39310000D02*
X59750000Y-39310000D01*
X54550000Y-39310000D02*
X54550000Y-41970000D01*
%TO.C,J3*%
X44639700Y-16430000D02*
X44639700Y-17760000D01*
X41979700Y-19030000D02*
X41979700Y-34330000D01*
X41979700Y-34330000D02*
X44639700Y-34330000D01*
X44639700Y-19030000D02*
X44639700Y-34330000D01*
X41979700Y-19030000D02*
X44639700Y-19030000D01*
X43309700Y-16430000D02*
X44639700Y-16430000D01*
%TO.C,J1*%
X15010000Y-31420000D02*
X15010000Y-34570000D01*
X17860000Y-37170000D02*
X30710000Y-37170000D01*
X30710000Y-28870000D02*
X17860000Y-28870000D01*
X15010000Y-34570000D02*
X17860000Y-37170000D01*
X30710000Y-37170000D02*
X30710000Y-28870000D01*
X17860000Y-28870000D02*
X15010000Y-31420000D01*
%TO.C,J3_1*%
X59879700Y-16410000D02*
X57219700Y-16410000D01*
X57219700Y-31710000D02*
X57219700Y-16410000D01*
X59879700Y-31710000D02*
X59879700Y-16410000D01*
X58549700Y-34310000D02*
X57219700Y-34310000D01*
X59879700Y-31710000D02*
X57219700Y-31710000D01*
X57219700Y-34310000D02*
X57219700Y-32980000D01*
%TO.C,J4*%
X38100000Y-41970000D02*
X36770000Y-41970000D01*
X39370000Y-41970000D02*
X39370000Y-39310000D01*
X39370000Y-39310000D02*
X41970000Y-39310000D01*
X41970000Y-41970000D02*
X41970000Y-39310000D01*
X39370000Y-41970000D02*
X41970000Y-41970000D01*
X36770000Y-41970000D02*
X36770000Y-40640000D01*
%TO.C,J5*%
X52130000Y-41970000D02*
X52130000Y-39310000D01*
X46990000Y-41970000D02*
X46990000Y-39310000D01*
X46990000Y-39310000D02*
X52130000Y-39310000D01*
X45720000Y-41970000D02*
X44390000Y-41970000D01*
X44390000Y-41970000D02*
X44390000Y-40640000D01*
X46990000Y-41970000D02*
X52130000Y-41970000D01*
%TO.C,J2*%
X25554700Y-16540000D02*
X25554700Y-21680000D01*
X24224700Y-13940000D02*
X25554700Y-13940000D01*
X22894700Y-16540000D02*
X22894700Y-21680000D01*
X25554700Y-13940000D02*
X25554700Y-15270000D01*
X22894700Y-16540000D02*
X25554700Y-16540000D01*
X22894700Y-21680000D02*
X25554700Y-21680000D01*
%TD*%
M02*
