%TF.GenerationSoftware,KiCad,Pcbnew,6.0.4-6f826c9f35~116~ubuntu20.04.1*%
%TF.CreationDate,2022-04-11T14:43:54+02:00*%
%TF.ProjectId,TestProject,54657374-5072-46f6-9a65-63742e6b6963,rev?*%
%TF.SameCoordinates,Original*%
%TF.FileFunction,Copper,L2,Bot*%
%TF.FilePolarity,Positive*%
%FSLAX46Y46*%
G04 Gerber Fmt 4.6, Leading zero omitted, Abs format (unit mm)*
G04 Created by KiCad (PCBNEW 6.0.4-6f826c9f35~116~ubuntu20.04.1) date 2022-04-11 14:43:54*
%MOMM*%
%LPD*%
G01*
G04 APERTURE LIST*
G04 Aperture macros list*
%AMRoundRect*
0 Rectangle with rounded corners*
0 $1 Rounding radius*
0 $2 $3 $4 $5 $6 $7 $8 $9 X,Y pos of 4 corners*
0 Add a 4 corners polygon primitive as box body*
4,1,4,$2,$3,$4,$5,$6,$7,$8,$9,$2,$3,0*
0 Add four circle primitives for the rounded corners*
1,1,$1+$1,$2,$3*
1,1,$1+$1,$4,$5*
1,1,$1+$1,$6,$7*
1,1,$1+$1,$8,$9*
0 Add four rect primitives between the rounded corners*
20,1,$1+$1,$2,$3,$4,$5,0*
20,1,$1+$1,$4,$5,$6,$7,0*
20,1,$1+$1,$6,$7,$8,$9,0*
20,1,$1+$1,$8,$9,$2,$3,0*%
G04 Aperture macros list end*
%TA.AperFunction,ComponentPad*%
%ADD10O,1.700000X1.700000*%
%TD*%
%TA.AperFunction,ComponentPad*%
%ADD11R,1.700000X1.700000*%
%TD*%
%TA.AperFunction,ComponentPad*%
%ADD12C,6.000000*%
%TD*%
%TA.AperFunction,ComponentPad*%
%ADD13RoundRect,1.500000X-1.500000X-1.500000X1.500000X-1.500000X1.500000X1.500000X-1.500000X1.500000X0*%
%TD*%
%TA.AperFunction,Conductor*%
%ADD14C,0.250000*%
%TD*%
G04 APERTURE END LIST*
D10*
%TO.P,J6,2,Pin_2*%
%TO.N,UART TX*%
X55880000Y-40640000D03*
D11*
%TO.P,J6,1,Pin_1*%
%TO.N,UART RX*%
X58420000Y-40640000D03*
%TD*%
D10*
%TO.P,J3,7,Pin_7*%
%TO.N,UART TX*%
X43309700Y-33000000D03*
%TO.P,J3,6,Pin_6*%
%TO.N,unconnected-(J3-Pad6)*%
X43309700Y-30460000D03*
%TO.P,J3,5,Pin_5*%
%TO.N,SIG_LED*%
X43309700Y-27920000D03*
%TO.P,J3,4,Pin_4*%
%TO.N,unconnected-(J3-Pad4)*%
X43309700Y-25380000D03*
%TO.P,J3,3,Pin_3*%
%TO.N,unconnected-(J3-Pad3)*%
X43309700Y-22840000D03*
%TO.P,J3,2,Pin_2*%
%TO.N,unconnected-(J3-Pad2)*%
X43309700Y-20300000D03*
D11*
%TO.P,J3,1,Pin_1*%
%TO.N,unconnected-(J3-Pad1)*%
X43309700Y-17760000D03*
%TD*%
D12*
%TO.P,J1,2,Pin_2*%
%TO.N,Vin*%
X26460000Y-33020000D03*
D13*
%TO.P,J1,1,Pin_1*%
%TO.N,GND*%
X19260000Y-33020000D03*
%TD*%
D10*
%TO.P,J3_1,7,Pin_7*%
%TO.N,ButtonOut*%
X58549700Y-17740000D03*
%TO.P,J3_1,6,Pin_6*%
%TO.N,GND*%
X58549700Y-20280000D03*
%TO.P,J3_1,5,Pin_5*%
%TO.N,unconnected-(J3_1-Pad5)*%
X58549700Y-22820000D03*
%TO.P,J3_1,4,Pin_4*%
%TO.N,unconnected-(J3_1-Pad4)*%
X58549700Y-25360000D03*
%TO.P,J3_1,3,Pin_3*%
%TO.N,unconnected-(J3_1-Pad3)*%
X58549700Y-27900000D03*
%TO.P,J3_1,2,Pin_2*%
%TO.N,unconnected-(J3_1-Pad2)*%
X58549700Y-30440000D03*
D11*
%TO.P,J3_1,1,Pin_1*%
%TO.N,UART RX*%
X58549700Y-32980000D03*
%TD*%
D10*
%TO.P,J4,2,Pin_2*%
%TO.N,ButtonOut*%
X40640000Y-40640000D03*
D11*
%TO.P,J4,1,Pin_1*%
%TO.N,V5*%
X38100000Y-40640000D03*
%TD*%
D10*
%TO.P,J5,3,Pin_3*%
%TO.N,GND*%
X50800000Y-40640000D03*
%TO.P,J5,2,Pin_2*%
%TO.N,SIG_LED*%
X48260000Y-40640000D03*
D11*
%TO.P,J5,1,Pin_1*%
%TO.N,ButtonOut*%
X45720000Y-40640000D03*
%TD*%
D10*
%TO.P,J2,3,Pin_3*%
%TO.N,V5*%
X24224700Y-20350000D03*
%TO.P,J2,2,Pin_2*%
%TO.N,GND*%
X24224700Y-17810000D03*
D11*
%TO.P,J2,1,Pin_1*%
%TO.N,Vin*%
X24224700Y-15270000D03*
%TD*%
D14*
%TO.N,ButtonOut*%
X58182400Y-18915300D02*
X58549700Y-18915300D01*
X49530000Y-27567700D02*
X58182400Y-18915300D01*
X49530000Y-41110200D02*
X49530000Y-27567700D01*
X48807500Y-41832700D02*
X49530000Y-41110200D01*
X47720700Y-41832700D02*
X48807500Y-41832700D01*
X46895300Y-41007300D02*
X47720700Y-41832700D01*
X46895300Y-40640000D02*
X46895300Y-41007300D01*
X45720000Y-40640000D02*
X46895300Y-40640000D01*
X58549700Y-17740000D02*
X58549700Y-18915300D01*
%TO.N,SIG_LED*%
X43677000Y-29095300D02*
X43309700Y-29095300D01*
X48260000Y-33678300D02*
X43677000Y-29095300D01*
X48260000Y-40640000D02*
X48260000Y-33678300D01*
X43309700Y-27920000D02*
X43309700Y-29095300D01*
%TO.N,UART RX*%
X58420000Y-34285000D02*
X58420000Y-40640000D01*
X58549700Y-34155300D02*
X58420000Y-34285000D01*
X58549700Y-32980000D02*
X58549700Y-34155300D01*
%TO.N,GND*%
X19260000Y-23582700D02*
X19260000Y-33020000D01*
X23857400Y-18985300D02*
X19260000Y-23582700D01*
X24224700Y-18985300D02*
X23857400Y-18985300D01*
X24224700Y-17810000D02*
X24224700Y-18985300D01*
X58549700Y-20280000D02*
X58549700Y-21455300D01*
X58182400Y-21455300D02*
X58549700Y-21455300D01*
X50800000Y-28837700D02*
X58182400Y-21455300D01*
X50800000Y-40640000D02*
X50800000Y-28837700D01*
%TO.N,Vin*%
X26460000Y-18313300D02*
X26460000Y-33020000D01*
X24592000Y-16445300D02*
X26460000Y-18313300D01*
X24224700Y-16445300D02*
X24592000Y-16445300D01*
X24224700Y-15270000D02*
X24224700Y-16445300D01*
%TD*%
M02*
